<svg width="96" height="96" viewBox="0 0 96 96" fill="none" xmlns="http://www.w3.org/2000/svg">
<circle cx="48" cy="48" r="48" transform="matrix(-1 0 0 1 96 0)" fill="#1344F0"/>
<path d="M45.6923 43L46.9054 41.4099L46.3681 41H45.6923V43ZM57.3187 51.8696L56.1056 53.4597L56.8995 54.0653L57.8606 53.7947L57.3187 51.8696ZM75.7445 48.152C76.2847 47.1886 75.9416 45.9696 74.9781 45.4294L59.2776 36.6264C58.3141 36.0862 57.0951 36.4293 56.555 37.3928C56.0148 38.3563 56.3579 39.5752 57.3213 40.1154L71.2774 47.9403L63.4525 61.8963C62.9123 62.8598 63.2554 64.0788 64.2189 64.619C65.1824 65.1592 66.4013 64.816 66.9415 63.8526L75.7445 48.152ZM33.5604 43V41H32.2829L31.7458 42.1591L33.5604 43ZM44.4792 44.5901L56.1056 53.4597L58.5318 50.2795L46.9054 41.4099L44.4792 44.5901ZM57.8606 53.7947L74.5419 49.0991L73.4581 45.2487L56.7768 49.9444L57.8606 53.7947ZM29.8147 55.8409L35.3751 43.8409L31.7458 42.1591L26.1853 54.1591L29.8147 55.8409ZM33.5604 45H45.6923V41H33.5604V45Z" fill="white"/>
</svg>
