<svg xmlns="http://www.w3.org/2000/svg" width="1534" height="1328" fill="none"><g fill="#0A0A0A" opacity=".07"><path d="M755.441 1.619c-5.812 3.192-4.125 9.014 3.375 12.206 5.25 2.254 7.688 5.07 12 14.46 7.875 16.714 11.25 31.737 11.25 49.202 0 40.188-13.687 71.361-44.25 100.281-12.75 12.019-19.875 17.09-35.062 24.601-32.063 15.775-51.375 16.338-80.063 1.878-12.375-6.197-37.687-24.976-46.687-34.554-7.125-7.324-11.438-8.45-15.188-3.943-3.187 3.755-1.5 44.319 2.813 65.915 6 31.925 19.875 63.662 37.875 88.263 12.562 16.901 36.75 40.939 51.562 51.455 24 16.901 57.188 30.798 85.875 35.868 17.438 3.005 58.688 3.005 75 0 31.5-5.821 66-20.469 88.688-37.934 10.687-8.075 12.75-10.516 12.187-14.648-.75-6.76-7.875-7.511-14.437-1.502-21.938 20.469-60.938 36.995-99.375 42.066-48 6.197-95.625-5.446-138-33.803-16.688-11.08-41.813-37.371-54.938-57.465-9.375-14.272-26.625-51.643-26.625-57.652 0-.751 3.563 4.131 8.063 10.704 12.937 19.718 20.062 27.793 36.937 41.502 18.938 15.399 49.688 31.362 73.125 37.559 13.875 3.756 20.25 4.319 48.75 4.131 36 0 47.625-2.253 75.563-13.896 43.125-17.841 81.75-57.465 96.75-98.779 8.062-22.16 10.312-38.122 9-63.85-1.313-26.854-4.5-39.437-15.375-61.784-19.688-40-57.375-74.366-98.625-89.765-20.063-7.512-54.938-13.709-60.188-10.516Zm48.375 21.408c18.563 6.197 31.125 12.77 44.25 22.91 13.5 10.33 19.313 18.029 24 31.362 15 42.629-14.812 97.652-69.562 127.699-29.625 16.338-54.188 21.033-104.813 20.094l-12.187-.188 15-6.197c35.812-14.648 64.312-41.502 81.75-77.558 16.312-33.427 18.937-71.362 7.5-104.977-3.188-9.201-5.813-17.089-5.813-17.276 0-1.69 7.688 0 19.875 4.131Zm97.5 85.634c10.125 20.469 14.25 38.309 14.25 63.661.188 42.442-14.625 76.808-46.312 106.667-21.938 21.033-42.375 33.051-72.188 42.629-21.562 6.948-58.875 8.638-82.5 3.943-55.125-11.267-99.937-46.009-127.312-98.591-7.313-14.272-13.313-30.798-13.313-37.371 0-1.502 4.313.939 9.375 5.259 27.188 22.722 69.938 39.436 111.375 43.192 89.438 8.451 166.875-35.869 191.25-109.296 2.625-7.887 4.875-18.591 4.875-23.849 0-5.258.75-9.578 1.875-9.578.938 0 4.875 6.01 8.625 13.334ZM975.004 10.258c-1.688.376-3.938 2.629-5.063 5.07-2.437 5.446 1.688 12.395 7.125 12.395 4.5 0 9.375-4.883 9.375-9.39 0-1.878-1.312-4.883-3-6.385-3-3.005-3.375-3.192-8.437-1.69ZM640.691 43.118c-3.937 5.446-3.75 7.7.375 11.456 4.5 4.131 8.438 3.943 12.188-.188 4.125-4.507 3.937-7.136-.563-11.643-4.875-4.883-8.437-4.695-12 .375ZM534.941 68.284c-7.312 5.07-4.312 15.775 4.5 15.775 8.625 0 11.063-11.268 3.563-16.15-3.375-2.254-4.5-2.066-8.063.375ZM389.253 102.65c-3.937.751-6.562 3.005-8.437 7.136-2.063 4.507-4.5 6.385-8.813 7.324-7.5 1.503-10.125 4.32-8.625 9.766.75 3.004 2.813 4.507 8.25 5.258 5.625.939 7.5 2.253 9 6.385 2.25 6.948 8.25 9.953 16.313 8.45 5.062-.939 6.937-2.441 9.187-7.511 1.875-4.883 3.75-6.573 7.125-6.573 6.563 0 11.063-4.131 10.313-9.577-.375-3.569-1.875-4.695-7.125-5.446-5.25-.752-7.125-2.254-9.938-8.076-1.687-3.755-3.937-6.948-4.875-6.948-.937 0-2.812-.376-4.312-.751-1.313-.376-4.875-.188-8.063.563Zm8.063 18.404c2.437 4.695.75 8.075-3.563 8.075-4.687 0-6.562-4.695-3.562-8.451 3-3.755 5.062-3.568 7.125.376ZM1149.94 112.602c-1.31 1.314-2.25 7.136-2.25 13.145v10.892h-8.25c-11.06 0-14.25 1.503-14.25 6.573s3.19 6.573 14.06 6.573h8.25l.57 12.582.56 12.77h11.25l.56-12.77.56-12.582h9.19c8.44 0 15-3.193 15-7.324 0-3.568-5.44-5.822-14.44-5.822h-9.93V124.62c0-9.201-.75-12.206-3-13.145-4.13-1.502-5.25-1.502-7.88 1.127ZM217.691 119.738c-4.5 4.507-4.5 5.446-.75 10.892 3.375 5.07 8.437 5.258 12.562.751 4.313-4.695 3.938-9.014-.937-12.394-5.438-3.756-6.375-3.756-10.875.751Z"/><path d="M663.379 134.388c-4.5 4.883-3.938 9.202 1.312 12.582 8.625 5.822 18.188-4.694 11.25-12.394-4.125-4.507-8.625-4.507-12.562-.188ZM1017.75 160.679c-1.87 1.878-3.18 4.883-3.18 6.573 0 3.568 5.06 8.826 8.62 8.826 3 0 10.13-6.573 10.13-9.39 0-2.816-7.13-9.389-9.94-9.389-1.5 0-3.94 1.502-5.63 3.38ZM1311.19 165.185c-3.19 3.192-2.81 8.263.75 11.643 4.31 4.319 9.56 3.568 13.13-1.69 3-4.507 3-5.07-.19-8.451-3.75-4.131-10.31-4.882-13.69-1.502ZM1137.94 222.837c-23.81 7.887-40.31 24.601-48.19 49.39l-2.25 6.948-12.56-1.127c-7.12-.563-15.94 0-20.44 1.127-10.68 3.005-24.93 12.958-30.37 21.221-4.31 6.76-5.25 7.136-14.06 7.136-17.066.188-32.816 10.141-42.379 27.042-6.937 12.019-7.312 17.465-1.125 19.155 6.188 1.502 8.25 0 11.813-8.826 3.562-9.014 17.25-21.409 25.121-23.099 3.19-.563 10.32-.563 15.94 0l10.13 1.315 3.56-8.451c8.62-20.282 32.25-29.484 52.5-20.282 13.31 6.197 13.12 6.197 16.12-12.018 2.82-17.653 16.88-36.057 33.75-44.32 13.32-6.572 35.63-6.572 47.82-.187 11.25 6.009 19.68 12.582 23.43 18.216 3 4.694 2.82 4.882-4.5 12.957-8.25 9.014-8.81 10.329-5.43 13.709 3.56 3.568 8.43 2.629 14.06-2.629 28.87-27.23 77.62-12.207 87.37 26.854 2.44 9.953.75 9.39 22.32 6.949 8.43-1.127 9.18-.751 15.18 5.821 6.38 6.949 6.38 6.949 12.19 3.944 6.75-3.568 21.38-3.944 27.19-.939 4.87 2.817 10.5 9.39 10.69 12.394 0 1.878-14.44 2.442-66.19 2.442h-66.19l-3.37-7.512c-1.88-4.132-6.38-9.765-9.94-12.77-6-4.507-8.44-5.07-20.25-5.07-12 0-14.25.563-20.63 5.446-3.93 3.004-8.43 8.638-9.93 12.77l-2.82 7.136h-64.12c-47.25 0-64.5.563-66.19 2.253-3.19 3.193-2.81 8.451.75 9.765 3.75 1.503 406.5 1.503 410.25 0 1.69-.563 3-2.629 3-4.319 0-6.948-3.56-7.699-35.62-7.699h-31.32l-4.5-9.766c-7.87-16.901-24.93-25.164-42.56-20.469-7.12 2.066-8.44 1.69-15.75-3.005-6.19-4.131-9.94-5.258-18.19-5.258l-10.5.188-4.5-9.39c-5.81-12.019-18.18-24.037-31.31-30.422-12-5.822-34.31-8.263-46.31-4.883-6.56 1.878-7.13 1.69-9.56-3.192-4.32-8.075-19.13-20.658-30.75-25.916-14.44-6.572-36.19-7.699-51.38-2.629Zm95.44 108.544c2.44 2.817 3.56 5.446 2.81 5.634-.75.188-8.25.564-16.69 1.127-13.68.563-15.56.376-15.56-2.441 0-3.381 4.5-8.075 9.38-9.953 6-2.442 15.93.375 20.06 5.633ZM154.128 242.932c-8.062 5.822-2.062 17.84 7.313 14.836 4.5-1.503 7.875-7.136 6.375-10.892-1.875-4.883-9.188-6.949-13.688-3.944ZM430.879 278.989c-4.125 4.507-3.937 6.573.188 10.328 6.562 6.01 15.375 2.817 15.375-5.258 0-8.263-9.75-11.455-15.563-5.07ZM276.191 300.582c-2.25 4.132-5.812 6.949-9.937 8.076-9.75 2.816-9 13.896.937 13.896 2.625 0 5.25 2.254 7.5 6.573 6 11.268 18.75 11.08 25.313-.188 2.812-4.507 5.062-6.385 8.437-6.385 3.563 0 5.063-1.314 6-5.07 1.5-5.446-2.625-9.953-9-9.953-2.062 0-4.312-2.442-6-6.573-2.625-6.197-3.375-6.573-11.25-6.573-7.312 0-8.625.751-12 6.197Zm13.688 14.461c0 5.07-4.125 7.323-5.813 3.004-1.5-4.131.563-9.202 3.563-8.075 1.125.376 2.25 2.629 2.25 5.071ZM450.566 368.941c-.937 1.878-2.25 6.573-3 10.329-1.5 7.887-5.437 10.892-13.875 10.892-6.187 0-10.312 3.756-9.375 8.826.375 2.441 3.188 3.756 9.938 4.695 10.5 1.502 13.125 4.131 14.812 14.648.75 5.07 2.25 7.699 4.875 8.451 5.438 1.69 8.625-1.503 11.063-11.268 2.25-9.014 6.187-12.207 15-12.207 3.75 0 6.375-1.314 7.687-3.943 3-5.258-.187-8.451-9.75-9.765-8.625-1.127-10.125-2.817-11.812-12.958-1.688-9.953-11.813-14.836-15.563-7.7Zm9.75 24.226c1.875 5.07 1.313 6.385-3.562 6.385-2.625 0-4.688-.752-4.688-1.691 0-3.755 2.438-7.699 4.688-7.699 1.312 0 3 1.314 3.562 3.005ZM176.816 384.904c-5.25 5.258-1.313 14.648 6.187 14.648 5.063 0 8.438-3.381 8.438-8.451s-3.375-8.451-8.438-8.451c-2.25 0-4.875.939-6.187 2.254ZM1015.5 392.04c-1.31 2.066.38 5.634 2.44 5.634.75 0 2.63-.939 4.13-1.878 2.43-1.69 2.43-2.066 0-3.756-3.57-2.253-5.07-2.253-6.57 0ZM1204.32 413.073c-3 3.005-2.82 9.953.37 12.77 3.94 3.005 10.5 1.69 13.5-2.817 5.06-7.699-7.31-16.525-13.87-9.953ZM261.753 424.528c-4.125 2.441-22.687 14.272-41.25 26.479-123.562 81.126-121.875 80-130.5 80-17.063 0-24.563 5.821-16.5 12.77 2.625 2.253 3.562 5.446 3.562 12.769 0 10.329 1.688 12.77 9.938 14.836l5.062 1.315v142.722l5.438 5.446c8.437 8.263 23.25 6.385 29.812-3.944 1.5-2.441 2.25-22.535 2.25-64.225.188-33.427.188-61.784 0-63.098 0-2.441-7.125-3.005-10.687-.751-1.875 1.126-2.438 16.525-2.813 62.347-.562 58.028-.75 61.032-4.125 61.596-1.875.375-4.125-.376-5.062-1.878-.938-1.315-1.688-33.051-1.688-70.234v-67.981l4.313-1.127c2.25-.564 6.375-1.127 9.187-1.127 7.5 0 10.875-4.507 10.875-15.023v-9.39l66.938-.376c77.625-.563 83.813-.375 82.313 3.569-.563 1.502-1.125 33.802-1.125 71.924v69.107l-11.625-.939c-6.563-.563-14.25 0-17.063 1.127-6.562 2.629-10.687 12.019-10.687 24.226v9.014l-11.625 1.878-11.813 1.69-.562 14.46-.563 14.648h-10.312c-19.5 0-17.625-14.648-17.625 135.211 0 85.446.562 131.641 1.875 132.391.937.57 3 .57 4.125-.37 1.312-.75 3.375-1.5 4.312-1.5 1.313 0 2.25-43.761 2.813-125.826l.937-125.822 103.125-.563c56.813-.188 104.063 0 105 .375 1.125.376 1.688 7.512 1.313 17.841l-.563 17.089c0 39.549.188 184.037.188 184.037l.187 23.849c.188 13.33.375 25.73.563 27.79.187 2.07.562 8.64.75 14.46.375 10.71.562 10.9 5.812 10.9 4.875 0 5.438-.57 6.375-8.83.563-4.69 1.125-112.3 1.125-238.873.188-126.572.563-230.234.75-230.421.188-.376 20.625-.752 45.375-.939l45-.188.563 292.393.375 292.208 5.25-.57c2.812-.18 5.625-1.31 6.375-2.44.75-.94 1.5-144.97 1.5-319.808V531.007h26.25v632.303l4.687 2.06c4.313 2.07 5.063 1.69 6.563-2.63 1.125-2.63 1.875-16.9 1.875-31.92v-27.04h90v28.92c0 15.96.562 30.23 1.125 31.92 1.5 3.76 5.25 3.76 9 0 2.625-2.63 3-21.03 3-175.586V816.452h22.5v170.704c0 93.894.562 173.144 1.125 176.334.937 4.89 2.062 5.64 6.187 5.45l4.875-.38.563-61.59.375-61.41h20.625l.188 53.9c.375 72.11.187 71.92 9 69.1l3.937-1.12V878.799c0-158.685.563-301.971 1.313-318.309l1.125-29.483h21.938v315.867c0 173.896.75 316.996 1.5 318.306 1.312 2.07 6.75 2.44 8.437.38.75-.56 3-42.44 3.188-56.71v-5.07h69.375l.375 30.42.562 30.61 4.875.56c4.125.56 5.063-.37 6.188-5.44.562-3.2 1.125-148.55 1.125-322.821 0-287.323-.188-316.994-3-318.121-1.688-.563-20.25-1.127-41.25-1.127h-38.25v-18.779h108.75l.375 20.094c.187 11.267.375 160.938.375 332.956.187 172.018.75 313.618 1.5 314.738.75 1.13 3.375 1.69 5.812 1.32 4.125-.75 4.688-2.07 5.813-13.34.562-6.94 1.125-122.62 1.125-257.272V653.072h170.623V1069.6l4.5.75c3.19.56 5.06 0 5.81-2.07.75-1.69 1.69-31.92 2.25-67.42l1.13-64.221H1102.69v71.551l5.25-.56 5.06-.57.57-35.303.37-35.118h24.38v34.179c0 35.872 1.12 41.502 6.93 37.932 3-1.88 3.38-6.01 3.94-37.181l.38-35.118 13.68.564 13.5.563.57 46.01c.18 25.352.75 46.762.93 47.882.94 2.45 7.5 2.45 9.19 0 .75-1.12 1.5-22.72 1.5-48.446v-46.385h24.38v34.554c0 28.357.56 34.927 2.81 36.807 2.25 1.88 3.37 1.88 5.62 0 1.5-1.13 2.63-2.82 2.44-3.38 0-.75 0-16.338.19-34.741l.19-33.24H1248.94v45.822c0 25.169.56 47.139 1.13 48.829 1.12 3 6.18 2.06 8.62-1.51.75-1.12 1.5-22.53 1.5-47.695v-45.446h22.5l.38 52.019.56 52.202H1293l.94-51.639.94-51.643 5.25-.563 5.06-.564.19 47.512c0 26.107.56 48.827 1.31 50.327 1.69 3.76 5.81 4.51 9 1.69 2.06-1.69 2.63-12.02 2.63-54.27 0-28.733-.57-53.522-1.13-55.212-1.12-2.629-12.94-3.004-116.25-3.004h-115.12v-35.681h112.31c61.87 0 113.62-.563 115.31-1.127 1.69-.563 3-2.629 3-4.319 0-6.573-3.94-7.7-27.56-7.7h-23.06v-144.6h84.37v143.098c0 137.655.56 153.805 5.44 146.475.75-1.5 2.25-2.25 3.19-1.87.93.37 1.87-60.661 2.25-143.666l.37-144.037H1382.07v117.37c0 115.305 0 117.371-3.75 119.625-2.07 1.314-3.75 4.507-3.75 7.136.18 12.958 15.37 16.526 23.06 5.446 2.62-3.568 2.62-4.883.37-10.704-2.43-5.446-2.81-25.353-2.81-122.629V730.067h64.88c41.06 0 66-.752 68.43-1.878 1.88-1.127 3.57-3.568 3.57-5.634 0-3.944-12.94-12.019-81.57-50.704-71.43-40.375-120-67.981-132.56-75.493-8.62-5.07-13.69-7.136-16.31-6.197-6 1.878-40.31 30.047-90.19 74.178-66.56 58.592-64.87 56.901-58.87 62.723 2.25 2.441 7.31 3.005 23.43 3.005h20.44l-.37 71.737-.57 71.924-15.37.564-15.56.563v-9.202c0-11.643-3-20.469-8.07-23.098-2.43-1.503-15.75-2.066-37.31-1.878l-33.37.375V740.583c0-113.239 1.68-102.535-16.32-102.535H1059l1.32-12.018c1.87-19.343 7.68-18.028-81.566-18.028h-76.687v-58.779c0-32.113-.75-59.719-1.5-61.033-1.313-1.69-16.125-2.254-68.063-1.878l-66.375.563-.562 15.399-.563 15.587H742.691l1.313-13.897c1.5-18.779 2.062-18.403-39.751-16.901-37.687 1.502-42.375 3.005-45.75 15.211-1.125 3.944-2.062 9.014-2.062 11.268v4.319l-69.75.376-69.938.563-.562 27.606-.563 27.793H410.816l-.938 4.131c-.562 2.442-.562 18.216-.187 35.305.562 17.09.375 56.15-.188 86.76l-1.125 55.963h-66.937v-210.14l6.75-1.315c3.75-.751 13.687-.751 22.125 0 17.25 1.503 25.5-.563 25.5-6.009 0-1.878-5.25-8.451-11.813-14.648-20.437-19.343-112.312-103.099-113.437-103.474-.75-.376-4.688 1.502-8.813 3.756Zm11.813 16.15c4.125 3.568 4.125 4.319 4.125 46.948v43.381H123.003l14.062-9.202c7.688-5.071 25.126-16.338 38.438-24.977 13.5-8.826 35.438-23.098 48.75-31.737 36.75-24.037 43.125-27.981 44.063-27.981.562.188 2.812 1.69 5.25 3.568Zm87.187 80c4.875 3.944 8.813 8.075 8.813 8.826 0 .751-17.25 1.503-38.438 1.503h-38.437v-71.55l29.625 26.855c16.125 14.835 33.375 30.235 38.437 34.366Zm375.938-11.831-.562 8.075-18.751.564c-14.812.375-19.312 1.126-21 3.568-1.875 2.441-2.437 28.356-2.437 114.553v111.361h-22.5V626.969c0-66.104.562-121.314 1.125-123.005.937-2.629 5.625-3.004 33-3.004h31.688l-.563 7.887Zm-147.75 42.817v20.657h-20.625v-41.314h20.625v20.657Zm69.375 0v20.657h-58.125v-41.314h58.125v20.657Zm69.375 28.544v49.39l-10.313-.564-10.312-.751v-97.276h20.625v49.201Zm63.751-28.544v20.657h-13.125v-41.314h13.125v20.657Zm22.5 0v20.657h-11.25v-41.314h11.25v20.657Zm33.75 0v20.657h-20.625v-41.314h20.625v20.657Zm-526.126-5.822c.937 1.503-24.938 20.845-27.75 20.845-1.5 0-1.5-19.718.187-21.22 1.875-1.878 26.438-1.503 27.563.375Zm-205.126 6.761v6.572H90.19V546.03h26.25v6.573Zm211.126 45.446c-1.313 1.314-31.313-14.836-30.75-16.526.375-.751 7.312-5.822 15.562-11.456l15-10.328.563 18.779c.187 10.329.187 19.155-.375 19.531Zm491.626-12.77 28.5.187v43.005l-34.688.563-34.687.564V583.588l6.187.752c3.188.563 18.938.939 34.688.939Zm-230.251 21.784v21.596h-20.625v-43.193h20.625v21.597Zm46.875 0v21.596h-35.625v-43.193h35.625v21.597Zm22.5 0v21.596h-9.375v-43.193h9.375v21.597Zm-348-1.691 18 8.639v33.051l-9.563-3.568c-7.312-2.816-10.125-3.192-12.187-1.502-4.875 3.944-3 9.014 4.875 12.958 4.125 2.065 7.5 4.131 7.5 4.507 0 .375-5.625 4.319-12.375 8.826-10.125 6.573-12.563 7.511-14.063 5.258-1.5-2.066-1.875-76.807-.562-76.807.187 0 8.437 3.944 18.375 8.638Zm1074.564 44.883c40.31 22.911 81.75 46.572 92.44 52.394 10.68 6.009 19.12 11.267 18.75 11.643-.38.376-21.38.939-46.69 1.314l-45.75.564-51.56-34.178c-57.38-37.747-76.88-51.455-76.88-53.709 0-.751 6.38-6.573 14.25-12.77 12.56-9.765 14.81-10.892 18.38-9.014 2.06 1.127 36.93 20.845 77.06 43.756Zm-337.5-22.347c.56 3.755.56 7.511-.38 8.45-.93.939-33.93 1.878-73.309 2.066l-71.624.563v-17.84h144.003l1.31 6.761Zm-463.689 25.727c0 16.338.937 19.53 6.187 20.469 5.438 1.127 6.563-2.065 6.563-19.342 0-13.521 1.125-15.211 9.937-13.521l5.063.939v44.694h-43.125V640.49l7.687.188 7.875.187-.187 12.77Zm51-9.577c-.563.939-.563 8.075.187 15.774 1.313 13.709 1.313 13.897 6.188 13.333 4.875-.751 5.062-1.126 6-16.525.937-15.587.937-15.775 6.187-16.338l5.063-.563V686.874h-35.438V641.992l5.063-.563c6.187-.751 8.25 0 6.75 2.629Zm180.751 19.718.562 23.098h-18.75c-15.75 0-18.75-.563-19.312-3.005-.375-1.69-.375-11.83 0-22.534l.562-19.531H791.442V673.916l6.187-.563 6-.563.563-16.526.562-16.525 5.063.563 5.062.563.563 22.911Zm31.875.188.562 22.91h-19.875l.563-21.971c.562-14.085 1.5-22.723 2.812-23.474 1.313-.751 5.25-1.315 8.813-.939l6.562.375.563 23.099Zm-119.626.375v22.535h-20.625v-19.53c0-10.704.563-20.845 1.125-22.535.75-2.254 3.75-3.005 10.312-3.005h9.188v22.535Zm597.939 16.714 49.5 33.051-8.25 1.315c-4.5.563-29.06 1.314-54.56 1.314l-46.5.188v-75.492l5.25 3.38c2.81 1.69 27.37 18.215 54.56 36.244Zm-74.81.939v32.488l-37.69 1.502c-20.63.751-38.06.939-38.44.376-.75-.564 73.88-66.666 75.75-67.042.19 0 .38 14.647.38 32.676Zm-922.504 16.15v26.291h-18.938c-16.5 0-18.75-.376-17.812-3.005.562-1.69 1.125-4.507 1.125-6.385 0-3.005 1.125-3.38 6.562-2.441 6.188.939 6.563.751 6.563-3.944 0-3.192-1.313-5.446-3.188-6.009-13.687-4.319-12.187-8.826 6.938-20.845 8.625-5.446 16.5-9.953 17.25-9.953s1.5 11.831 1.5 26.291Zm260.625 25.352v23.474h-20.625V700.02h20.625v23.474Zm46.875 0v23.474h-33.75V700.02h33.75v23.474Zm22.5 0v23.474h-5.25c-4.688 0-5.25-.563-4.875-6.197.187-3.193.375-13.897.562-23.474.188-17.089.188-17.277 4.875-17.277h4.688v23.474Zm69.375 0v23.474h-20.625V700.02h20.625v23.474Zm82.501 0v23.474h-31.875V700.02h31.875v23.474Zm37.125-.564-.563 23.099h-24.375l-.562-20.469c-.188-11.456 0-21.784.375-23.099.75-1.69 4.875-2.441 13.312-2.441h12.375l-.562 22.91Zm-572.251-19.154c1.875 0 2.625 2.816 2.625 10.328v10.329h-26.25v-10.141c0-9.765.187-10.329 5.25-11.08 2.812-.563 7.5-.563 10.5-.188 3 .376 6.562.752 7.875.752Zm973.504 26.103c1.68.188 2.25 5.821 2.25 21.408v21.409l-9.75-3.381c-10.69-3.568-11.82-3.192-13.69 4.32-1.13 4.507-.75 5.258 6 6.948 12.75 3.568 13.12 4.883 3.19 10.517-5.07 3.004-11.82 6.76-15 8.826-11.82 6.76-12.19 6.197-11.63-20.657l.56-23.85h5.63c4.69-.188 5.81-.939 6.19-5.071.56-4.507-.19-5.07-5.63-5.633-5.62-.564-6.19-1.127-6.75-7.512-.37-5.258.19-6.949 2.81-7.512 2.82-.563 28.32-.563 35.82.188Zm-920.254 17.089v9.39h-99.375v-18.78h99.375v9.39Zm260.625 33.803v22.535h-20.625v-45.07h20.625v22.535Zm46.875 0v22.535h-33.75v-45.07h33.75v22.535Zm22.5-.188c0 22.347 0 22.347-4.688 23.099l-4.687.939V758.236h9.375v22.347Zm35.625.188v22.535h-22.5v-45.07h22.5v22.535Zm34.125-9.014c.188 12.77.188 23.662-.187 29.108-.188 1.69-3.563 2.441-10.501 2.441h-10.312v-45.07h20.625l.375 13.521Zm82.126 9.014v22.535h-31.875v-45.07h31.875v22.535Zm37.5 0v22.535h-26.25v-45.07h26.25v22.535Zm403.128 34.742c0 8.826-.38 15.962-1.13 15.962-1.5 0-30.94-15.587-30.19-16.15 1.13-1.315 28.69-15.775 30-15.775.75 0 1.32 7.136 1.32 15.963Zm-661.879 23.662v22.347h-20.625v-46.009l10.312.563 10.313.751v22.348Zm69.375-.188v22.535h-56.25v-45.07h56.25v22.535Zm69.375 85.446c0 101.407-.187 107.977-3.187 108.167-1.875.19-6.376.38-9.938.56l-6.562.19-.563-108.542-.375-108.356h20.625v107.981Zm82.501-85.446v22.535h-31.875v-45.07h31.875v22.535Zm37.5 0v22.535h-26.25v-45.07h26.25v22.535Zm380.808-3.756c8.63 4.131 16.32 8.263 17.25 9.202 1.13 1.127-1.31 3.568-5.81 6.385-4.12 2.629-9.19 7.136-11.25 9.765-3.19 4.131-5.25 4.883-11.06 4.319l-7.13-.563-.56-18.404c-.37-10.704.19-18.216 1.31-18.216.94 0 8.82 3.38 17.25 7.512Zm-82.68 18.591c4.12 1.127 4.68 2.442 5.25 11.08l.56 9.765h-65.81v-10.14c0-9.766.18-10.329 5.25-11.08 8.43-1.315 49.68-.939 54.75.375Zm105 13.334v7.511h-9.57c-5.25 0-9.18-.751-8.81-1.878.38-1.314 15.38-12.206 18-12.957.19-.188.38 3.192.38 7.324Zm-661.879 29.295v21.409h-20.625V873.728l10.312.564 10.313.751v21.408Zm258.376-.187.562 21.596h-69.562V873.728l34.125.376 34.312.376.563 21.784Zm-189.001 0v21.596l-6.938.188c-13.687.187-50.062-.376-50.625-.752-.187-.375.188-9.953.75-21.596l1.125-21.033h55.688v21.597Zm-249.375 2.817v22.723-45.259 22.536Zm381.001 48.638.562 16.15 6.188.564 6 .563v-16.714c0-15.586.375-16.901 3.937-17.84 8.438-2.254 9.188-.375 9.188 23.099 0 25.352.562 24.601-16.875 23.474-5.625-.376-12.563-.751-15.375-.751l-5.25-.188v-22.347c0-23.099.562-24.977 7.875-23.099 2.625.563 3.375 3.568 3.75 17.089Zm-178.501 5.822v22.535h-43.125v-45.071h43.125v22.536Zm24.375-5.634v16.901h11.25l.187-13.709c.375-19.53.188-19.155 6-19.718l5.063-.563V976.076h-35.813l.563-22.535.562-22.536H635.816v16.902Zm211.876 5.634v22.347l-6.375 1.127c-3.563.751-8.25.751-10.313 0-3.75-1.127-3.937-2.441-3.937-23.662v-22.348h20.625v22.536Zm-438.751 2.065v22.723-45.446 22.723Zm180 55.024c0 23.85 0 23.66-13.313 23.66h-7.312v-45.069h20.625v21.409Zm69.375 0c0 25.54 2.437 23.66-32.063 23.66h-23.625l-1.312-7.13c-.563-3.76-1.125-13.9-1.125-22.54v-15.399h58.125v21.409Zm133.126 1.13v22.53H778.504l-.562-22.53-.563-22.539H791.442v22.539Zm56.25-1.13v21.22l-5.813 1.31c-3.187.57-12.937 1.13-21.375 1.13h-15.375l-1.312-8.64c-.563-4.88-1.125-15.02-1.125-22.53v-13.899h45v21.409Zm-258.751 57.28c0 25.16-.563 26.1-14.063 23.47l-6.562-1.13v-44.69h20.625v22.35Zm46.875 0c0 25.54 1.5 23.66-19.875 24.41l-13.5.38-.563-12.77c-.375-6.95-.562-17.66-.187-23.67l.75-10.7h33.375v22.35Zm22.5 1.12v23.48h-4.688c-2.625 0-4.687-1.13-4.875-2.44-1.312-19.91-1.5-26.29-.562-34.75.937-8.82 1.5-9.76 5.625-9.76h4.5v23.47Zm133.501-7.13c.562 16.52.562 16.52 5.812 17.09l5.063.56.187-13.71c.375-19.53.188-19.34 5.625-19.91l4.875-.56 1.125 22.16c.938 16.34.563 22.35-1.125 23.48-1.125.75-9.562 1.5-18.562 1.5h-16.5v-46.95H791.254l.563 16.34Zm55.875 6.19v22.35l-6.375 1.13c-3.563.75-8.25.75-10.313 0-3.75-1.13-3.937-2.44-3.937-23.66v-22.35h20.625v22.53Z"/><path d="M584.066 954.478c-2.062 5.258.75 8.451 7.688 8.451 6 0 6.562-.376 6.562-5.634s-.562-5.634-6.562-5.634c-4.125 0-7.125 1.127-7.688 2.817ZM1104.19 452.322c-2.06 1.126-3.37 4.131-3.37 7.511 0 4.319-1.32 6.385-5.44 8.827-12.56 7.136-15.19 22.535-5.63 32.112 3.19 3.193 6.94 5.822 8.44 5.822 1.69 0 2.63 2.065 2.63 6.197 0 8.263 3.75 13.145 9.56 12.206 3.94-.563 4.5-1.69 5.06-8.638.56-6.573 1.5-8.451 6-10.704 7.69-3.944 11.25-9.953 11.25-18.967 0-8.639-3.75-14.46-11.25-18.216-3.19-1.503-4.87-4.132-5.25-7.888-.37-3.192-2.06-6.76-3.75-8.075-3.56-2.629-4.12-2.629-8.25-.187Zm10.5 28.168c2.63 2.066 4.88 5.071 4.88 6.385 0 3.381-7.32 10.329-11.07 10.329-3.37 0-11.43-7.324-11.43-10.516 0-2.442 8.62-10.141 11.25-10.141.75 0 3.56 1.69 6.37 3.943ZM967.691 459.644c-4.5 4.507-4.687 8.075-.75 12.019 5.625 5.822 15.75 1.69 15.75-6.385 0-3.192-6.375-9.389-9.75-9.389-.937 0-3.187 1.69-5.25 3.755ZM1374.57 496.262c-1.69 5.07-3.57 6.948-7.69 7.887-3 .564-6.38 2.066-7.5 3.568-3 3.756-.19 10.141 4.5 10.141 5.25 0 7.31 1.503 10.69 8.451 2.62 4.882 4.12 5.634 11.62 6.197 8.44.563 9 .188 13.5-6.948 3.38-5.259 6.19-7.7 9.94-8.075 4.5-.376 5.25-1.503 5.25-6.198 0-4.882-.94-5.633-6.94-7.136-5.81-1.314-7.31-2.817-8.62-7.511-1.5-5.822-2.07-6.01-12-6.573l-10.5-.564-2.25 6.761Zm16.5 14.648c.75 3.756-4.69 6.385-7.5 3.568-2.82-2.817-.19-8.263 3.56-7.512 1.87.376 3.56 2.066 3.94 3.944ZM1215.19 508.47c-1.12 2.253-1.5 5.634-.94 7.512 1.32 4.507 9.75 6.948 13.88 4.319 3.75-2.441 4.87-9.39 2.06-12.958-3.56-3.944-12.56-3.38-15 1.127ZM1140.75 573.634c0 1.314 1.13 2.441 2.63 2.441 1.31 0 2.44-1.127 2.44-2.441 0-1.502-1.13-2.629-2.44-2.629-1.5 0-2.63 1.127-2.63 2.629ZM97.315 743.399c-5.25 3.004-4.312 12.582 1.313 15.211 8.625 3.944 16.125-7.512 9.187-14.272-3.375-3.381-6-3.756-10.5-.939ZM69.94 849.502c-7.312 5.07-4.312 15.774 4.313 15.774 8.062 0 11.437-9.953 5.437-15.774-3.562-3.756-4.5-3.756-9.75 0ZM122.066 1052.51c-4.125 1.5-11.438 8.45-13.313 12.77-.937 2.06-2.812 5.26-3.937 7.13-2.063 2.82-1.875 3.76.937 5.83 1.688 1.31 3.188 4.13 3.188 6 0 4.89 6.75 18.03 10.312 20.1 4.688 2.44 3.188 4.69-5.437 8.64-15.376 6.76-15 5.44-16.313 80-.75 44.69-2.25 72.86-4.313 88.26-4.687 34.55-2.25 30.99-21.75 30.99-15.187 0-16.874.37-18.937 3.94-1.688 3.19-1.5 4.69.938 7.14 2.812 2.81 58.5 3 705.187 3.38l702.002.56 2.81-4.13c2.06-2.82 2.25-4.89.94-7.51-1.5-2.82-4.13-3.38-15.75-3.38h-14.06v-89.02c0-58.4-.75-90.89-2.07-94.46-2.81-7.51-10.68-15.21-17.06-16.52-7.69-1.69-8.62-6.01-2.44-11.08 3.94-3.2 5.25-6.2 6-13.15.75-6.76 2.07-9.39 4.5-9.95 4.69-1.32 4.5-2.63-2.25-12.77-7.12-10.52-15.56-15.03-24.75-13.34-6.18 1.13-8.43 3.01-19.12 14.84-4.69 5.26-6.19 10.7-3 10.7.75 0 2.06 3.95 2.62 8.83.75 6.76 2.25 10.14 6.57 13.9 3 2.81 6.56 5.26 7.68 5.63 1.69.56 1.5 2.63-.56 7.51-1.5 3.57-4.12 14.09-5.62 23.48-2.63 15.4-3.38 17.09-9.94 22.91-3.94 3.19-13.13 9.01-20.25 12.58-10.88 5.45-15.19 6.57-24.94 6.57-7.69 0-13.31-1.12-16.31-3-2.63-1.69-10.5-3.38-19.5-3.95-13.69-.93-15-.75-16.88 3.01-1.31 2.06-3.18 3.94-4.31 3.94-3 0-.75-25.91 2.81-32.67 3-5.64 2.63-9.58-1.5-11.08-1.31-.57-8.06-8.27-14.81-16.9-10.31-13.34-12.37-17.09-12.37-23.1-.19-8.83-10.69-24.42-17.82-26.29-8.06-2.07-17.43.75-21.56 6.57-2.06 3-3.75 6.38-3.75 7.51s-1.12 2.07-2.62 2.07c-3.75 0-4.5 3.75-5.25 24.41l-.57 17.84 23.25.56c15.57.38 24-.18 25.69-1.69 1.5-1.31 3-1.88 3.19-1.5.19.38 3.37 4.13 7.12 8.26l6.57 7.7-1.88 18.59-2.06 18.78-7.5.57c-4.88.37-8.06-.19-9.38-2.26-1.12-1.5-6.56-4.5-11.81-6.57-15-6.01-31.12-14.46-37.5-19.91-3.37-2.81-7.5-9.2-9.75-15.58-4.69-12.58-7.87-16.34-17.25-21.22-3.94-2.07-7.12-4.32-7.12-5.07s2.25-3.95 4.87-6.95c6.38-7.33 8.25-12.58 8.25-22.54 0-20.84-26.62-30.61-41.06-15.21-5.63 6.01-8.06 17.28-5.63 24.98 1.88 5.82 9.94 14.27 15.19 15.96 2.06.75 1.88 2.63-.19 10.14-1.31 5.07-3.18 12.77-4.12 17.09-3.38 16.71-12.94 26.86-36.75 38.87-19.69 9.77-28.5 9.39-49.88-2.06-20.62-10.89-30-20.85-34.12-35.68-1.69-6.01-4.31-14.27-5.81-18.41-2.63-7.51-2.63-7.51 2.81-12.2 6-4.89 9.56-12.4 9.56-19.72 0-2.25 1.31-4.7 2.81-5.45 2.25-.75 1.5-2.81-3.93-9.95-15.38-20.28-29.442-20.09-45.379.94-5.063 6.95-5.25 9.2-.375 10.7 2.625.94 3.75 2.82 3.75 7.14 0 6.57 6 17.65 10.312 19.34 4.688 1.88 3.188 3.95-5.625 7.14-4.875 1.88-10.125 5.82-12.562 9.2-4.313 5.82-4.313 7.32-5.25 70.8l-.938 64.79-156.375.18c-164.437.19-160.312 0-158.25 8.46.938 3.38 6 3.56 157.875 3.94l156.75.56.563 21.22.562 21.04-158.062-.38-158.063-.56-14.25-43.2c-7.875-23.85-14.062-43.75-13.5-44.69.375-.75 4.5-1.32 9-1.32 6.563 0 8.438-.75 9.375-3.75 2.25-6.76-2.437-9.77-13.875-9.01l-10.312.56-3.938-13.15c-3.375-11.64-4.5-13.14-8.437-13.14-3.938 0-5.25 1.69-9.188 12.58l-4.687 12.77-60.188.38-60 .56v11.27l58.125 1.12c32.063.57 58.125 1.13 58.313 1.32 0 .19-2.25 7.32-5.063 15.77-4.312 12.96-18 57.09-21.562 69.49-.563 1.87-2.625 3.38-4.5 3.38-3.375 0-3.75-1.88-4.125-27.8l-.563-27.6-43.5-.57-43.687-.37-.188 17.27c-.187 9.58 0 19.72.188 22.73.187 2.81-.188 7.7-.938 10.7l-1.312 5.64h-63l-1.313-36.25c-.562-19.72-.937-42.82-.562-51.08l.562-15.02 11.063-.19c6.937-.19 11.437-1.13 12.562-2.82 4.875-7.7-1.125-12.95-14.25-12.95h-10.125l-.562-33.43c-.563-30.8-.938-33.62-4.688-39.06-2.437-3.19-7.125-7.33-10.875-9.02-3.562-1.69-6.562-3.75-6.562-4.5s2.625-5.07 5.625-9.58c6.937-10.33 8.625-18.97 5.437-27.79-3.75-9.77-11.25-14.65-22.312-14.65-7.5 0-10.125.94-14.813 5.44-8.062 7.7-10.5 16.34-7.687 26.48 2.437 9.02 5.812 12.77 13.5 15.78l4.875 1.88-2.625 9.01c-1.5 4.88-3.375 16.53-3.938 25.92l-1.125 16.9-9.562 9.39c-5.25 5.25-14.438 12.39-20.438 15.77-5.812 3.38-11.25 7.14-12 8.64-2.25 3.75-19.125 4.51-20.437.94-.375-1.5-5.625-5.82-11.438-9.39-5.625-3.57-13.5-10.14-17.25-14.27-6.562-7.7-6.75-8.45-8.812-30.05-1.125-12.4-2.625-24.6-3.375-27.23-1.313-4.32-.563-5.63 4.312-8.45 6.375-3.76 11.438-12.77 11.438-20.28 0-2.63.937-4.89 1.875-4.89 4.125 0 1.312-5.44-8.063-15.58-7.875-8.45-11.062-10.71-15.562-10.71-9.188 0-17.625 3.76-20.438 9.21-1.312 2.81-3.937 6.19-5.437 7.51-3.75 3.19-3.938 9.39-.375 10.7 1.5.56 3.187 4.7 3.937 9.2.75 5.64 3 10.14 6.563 13.9 6 6.01 6 6.2-6 12.21-11.25 5.63-12.75 11.08-12.75 47.88v32.12h-8.25c-6.375 0-8.625-.76-9.375-3.38-.563-1.69-7.125-6.95-14.438-11.65-7.312-4.69-16.125-11.45-19.5-15.21-5.625-6.2-6.187-8.26-7.5-22.53-.75-8.64-2.812-20.29-4.687-25.73l-3.188-9.95 5.438-2.82c5.812-3.01 10.875-12.4 10.875-20.47 0-2.63.937-4.7 1.875-4.7 3.562 0 1.875-3.94-5.063-12.39-10.125-12.21-19.125-16.15-28.687-12.58ZM244.878 1085c0 3.94-.937 4.88-6 5.25-4.5.38-6.187-.18-7.125-3.19-1.687-5.63.563-8.07 7.125-7.32 5.063.37 6 1.31 6 5.26Zm759.372 0c0 3.75-1.12 4.88-5.434 5.25-7.688.94-12.375-7.7-5.25-9.57 6.934-2.07 10.684-.57 10.684 4.32Zm223.69-3.38c3.94 3.94 2.44 5.25-5.25 5.25-4.12 0-7.5-.75-7.5-1.5 0-2.63 4.31-6.01 7.5-6.01 1.69 0 3.94.94 5.25 2.26Zm-1089.374 3.56c-.938 6.58-6.188 8.83-10.688 4.7-6.187-5.64-4.875-8.64 3.75-8.64 6.75 0 7.5.56 6.938 3.94Zm1267.874-1.69c0 3.38-5.81 9.02-9.56 9.02-3.38 0-7.31-5.07-7.31-9.2 0-1.13 3.75-2.07 8.43-2.07 5.25 0 8.44.75 8.44 2.25Zm-172.5 24.98v8.45h-26.25v-5.45c0-10.51 1.31-11.45 14.25-11.45h12v8.45Zm-34.69 65.16 9.38 4.32-11.06.57c-14.07.75-16.13-.19-16.13-6.76 0-6.95 1.69-8.64 5.63-5.07 1.5 1.5 7.12 4.69 12.18 6.94Zm-170.43 4.7c-.57.56-3.75-1.69-7.13-5.07l-6.19-6.01 7.13 5.07c3.94 2.82 6.56 5.63 6.19 6.01Zm105.75-6.01c0 5.07-4.88 7.32-14.25 6.2-5.44-.57-5.44-.57 3-5.45 10.68-6.38 11.25-6.38 11.25-.75Zm-785.629 15.02v6.58h-19.125l9-6.39c5.062-3.57 9.375-6.57 9.75-6.57.187-.19.375 2.82.375 6.38Zm-191.25.19c6.187 4.13 6.937 5.45 5.25 8.08-3 4.88-.375 12.77 4.5 14.08 2.437.56 11.625.56 20.625-.19l16.5-1.12v103.85h-27.938c-27.375 0-27.937 0-29.062-4.32-2.063-7.52-1.313-125.26.75-125.26 1.125 0 5.25 2.25 9.375 4.88Zm94.125-3.38c.375.75 2.812 3.19 5.625 5.45l5.25 3.94-6.563.75c-7.875.94-8.437.56-8.437-6.38 0-4.89 2.625-7.33 4.125-3.76Zm777.754 3.19c0 7.51 4.68 16.72 9.93 20.28 2.82 1.88 8.63 3.2 13.5 3.2 6 0 8.44.75 8.44 2.63 0 1.5-3.19 13.52-7.31 26.85-3.94 13.15-10.5 34.74-14.25 47.89l-7.13 24.04h-18.18v-20.66c0-15.03.75-22.35 2.81-26.48 2.62-4.88 2.62-5.63 0-6.57-2.44-.94-2.81-6.39-2.81-36.44v-35.11l6.18-2.07c8.63-2.81 8.82-2.63 8.82 2.44Zm354 61.41.37 63.48h-35.25l-2.81-8.08c-4.69-12.58-10.69-31.92-10.69-33.61 0-.76 4.13-1.51 9.19-1.51 12.19 0 15.19-1.31 15.19-6.76 0-5.44-5.82-7.32-17.82-5.82-5.25.56-9 0-10.31-1.31-.94-1.32-5.06-11.83-9-23.29l-7.5-21.03h15.56c14.07 0 15.94-.38 23.07-5.64 4.31-3 9.56-9.01 11.62-13.14 3.75-7.14 4.5-7.7 10.88-7.14l6.93.57.57 63.28Zm-40.88-55.59c8.44 3.39-15.75 4.14-130.69 4.32-118.87.19-137.62-.56-135-4.88 1.13-1.69 261.57-1.13 265.69.56Zm-278.62 1.69c-.75 1.88-3.75 2.82-9.38 2.82-6 0-8.25-.75-8.25-2.82 0-2.06 2.25-2.81 9.38-2.81 7.5 0 9 .56 8.25 2.81Zm-715.129 16.91c0 1.5-.75 6.76-1.688 11.64-.937 4.88-4.5 22.53-7.687 39.06-3.188 16.53-6.75 34.55-7.688 40l-2.062 9.77-30.188-.38-30.375-.56-9.75-46.95c-5.25-25.92-9.75-48.83-9.75-51.08l-.187-4.13h49.687c41.625 0 49.688.37 49.688 2.63Zm758.059 2.25c.57 1.88 4.13 11.27 7.69 21.03 3.75 9.58 6.75 18.59 6.75 19.72 0 1.32-9 2.25-28.12 2.63-24.75.38-28.13 0-28.13-2.63 0-2.82 10.88-39.44 12.56-42.63.38-.75 6.94-1.31 14.44-1.31 11.44 0 14.06.56 14.81 3.19Zm32.07 2.82c1.31 8.45 4.68 56.71 3.93 57.46-.37.38-1.5-3-2.43-7.51-1.13-4.51-5.25-16.9-9.38-27.79-11.62-30.61-11.44-28.17-1.5-28.17 8.06 0 8.44.19 9.38 6.01Zm136.87 0c-2.25 11.08-12.94 40-14.25 39.43-.94-.18-19.69-.37-41.81-.37h-40.31v-12.77c0-6.95.56-17.09 1.12-22.54l1.31-9.76h95.44l-1.5 6.01Zm31.69 14.08c3.94 11.27 6.94 21.41 6.94 22.54 0 1.87-4.88 2.44-18 2.44-17.63 0-17.82 0-16.69-4.32.75-2.26 3.94-12.4 7.12-22.54 4.88-15.21 6.57-18.21 9.75-18.21 3.19 0 5.07 3.19 10.88 20.09Zm105.19 9.39c.56 14.27 1.68 36.24 2.25 48.83l1.12 23.1H1404l1.32-48.27c.75-26.48 1.68-48.82 2.25-49.76 2.81-4.51 4.31 2.81 5.25 26.1Zm-420.004-8.45c.562 9.39 1.125 31.36 1.125 48.83v31.55h-9.375l.187-47.7c0-26.11.563-48.08 1.125-48.83 3.938-3.94 5.625 0 6.938 16.15Zm-866.063 48.83 1.313 31.55h-10.688c-10.687 0-10.687 0-9.75-5.26.563-2.82 4.125-24.42 8.25-47.89l7.125-42.82 1.125 16.53c.75 9.01 1.875 30.61 2.625 47.89Zm481.875-41.69c2.625 7.51 4.688 14.46 4.688 15.4 0 .75-5.063 1.5-11.25 1.5-12.563 0-12.938-.38-9.188-14.09 3-11.26 7.688-20.09 9.375-18.4.938.94 3.75 7.89 6.375 15.59Zm-236.25 29.1c1.5 16.53 3.375 33.24 3.938 37l1.125 7.14h-14.25c-11.813 0-14.25-.57-14.25-3.01 0-3.19 16.125-68.92 18.187-73.99 1.5-3.94 1.688-2.82 5.25 32.86Zm-130.5 6.2c5.25 19.72 9.563 36.43 9.563 37 0 .56-6.375.94-14.063.94-12.187 0-14.062-.38-14.062-3.38 0-5.83 5.812-64.98 6.937-69.86.563-2.63 1.313-3.95 1.688-2.82.187.94 4.687 18.22 9.937 38.12Zm375.938-7.51c2.437 4.69 14.25 41.5 14.25 44.32 0 .56-13.5 1.13-30 1.13s-30-.19-30-.57c0-1.88 8.25-28.73 11.437-37.37l3.938-10.7 9.562-.57c5.438-.37 11.625-.75 13.875-.94 3-.37 5.063.94 6.938 4.7Zm510.184 5.45c3.57 8.82 12.19 35.3 12.19 37.55 0 1.88-9.19 2.45-45.94 2.45-27.93 0-45.93-.76-45.93-1.88 0-3.57 9.93-36.62 11.81-39.06 1.31-1.69 10.5-2.26 34.12-2.26 29.07 0 32.63.38 33.75 3.2Zm130.32-.76c0 1.32-2.82 10.9-6.19 21.04l-6.38 18.78-34.87.56-35.06.38 1.12-19.16c.56-10.7 1.31-20.47 1.88-21.78.93-3.38 79.5-3.38 79.5.18Zm67.31 16.72c3.56 10.7 6.75 20.47 7.12 21.59.75 1.88-6.93 2.45-34.87 2.45-27.94 0-35.81-.57-35.81-2.45 0-5.44 11.43-38.68 13.68-39.43 1.13-.57 11.63-1.13 22.88-1.13l20.81-.19 6.19 19.16Zm-789.564-15.03c-.75 1.88-9 2.63-31.125 3.01-26.25.37-30.375 0-30.375-2.44s4.5-2.82 31.125-2.82c24 0 30.937.56 30.375 2.25Zm.375 28.74v10.33h-61.875v-20.66h61.875v10.33Z"/><path d="M285.379 1114.29c-5.063 4.13-5.813 6.2-5.813 13.71 0 7.51.938 9.95 5.625 14.46 3.938 3.75 5.625 7.32 5.625 11.64 0 8.08 3 13.52 7.313 13.52 3.75 0 7.687-7.13 7.687-13.89 0-2.44 1.688-5.83 3.938-7.89 4.875-4.51 9.187-12.58 9.187-17.47 0-16.33-20.625-24.97-33.562-14.08Zm17.625 13.9c0 5.44-7.125 7.7-9 3-1.875-4.88.75-8.83 5.062-8.26 2.813.37 3.938 1.88 3.938 5.26ZM2.066 1316.17c-3.75 6.95.563 9.2 18 9.2 13.5 0 15.563-.37 16.688-3.57 2.437-7.88-.375-9.57-17.063-9.57-13.875 0-15.938.37-17.625 3.94ZM1480.88 1313.35c-2.25 2.26-1.5 9.77 1.12 11.46 2.44 1.5 43.32 1.13 48.75-.56 2.44-.76 3.19-2.63 2.82-6.01l-.57-5.07-25.5-.57c-13.87-.19-25.87.19-26.62.75Z"/></g></svg>