<svg width="1841" height="400" viewBox="0 0 1841 400" fill="none" xmlns="http://www.w3.org/2000/svg">
<path d="M417 169.5L1841 87V384L417 293V169.5Z" fill="#1344F0"/>
<path d="M215.399 0.362976C182.83 2.64564 151.763 11.7206 123.814 27.1426C88.0711 46.8514 57.8954 78.8088 37.6854 118.449C32.5633 128.526 32.0066 130.586 33.8995 132.479C36.739 135.319 38.5762 133.537 43.5313 123.404C58.2851 92.9502 82.8934 63.7766 109.729 44.8471C136.174 26.1404 168.354 13.6693 201.759 9.1596C211.001 7.87907 230.432 7.43368 240.731 8.2688C267.121 10.3288 292.398 17.5108 317.229 29.982C348.963 45.9606 379.306 74.4661 398.458 106.479C406.03 119.062 414.493 137.212 417.221 146.621C417.722 148.402 418.668 150.351 419.281 150.963C420.784 152.467 423.456 152.132 424.904 150.24L425.962 148.736L424.18 143.28C411.876 106.034 384.762 68.4533 352.081 43.2326C332.651 28.2561 314.445 18.68 289.336 10.2174C266.676 2.58997 237.948 -1.25159 215.399 0.362976Z" fill="#1344F0"/>
<path d="M222.748 45.7934C221.468 47.074 220.41 48.4658 220.41 48.7999C220.41 49.5793 224.697 53.4209 225.588 53.4209C226.423 53.4209 230.432 49.468 230.432 48.6885C230.432 48.1318 225.922 43.3994 225.421 43.3994C225.254 43.3994 224.029 44.4573 222.748 45.7934Z" fill="#18194F"/>
<path d="M280.54 46.4615L278.09 48.9669L280.484 51.1939C281.764 52.4188 283.156 53.4209 283.602 53.4209C284.047 53.4209 285.439 52.4188 286.719 51.1382L289.002 48.8556L286.608 46.4059C285.272 45.0697 283.936 43.9562 283.602 43.9562C283.268 43.9562 281.876 45.0697 280.54 46.4615Z" fill="#18194F"/>
<path d="M145.528 47.0185C129.772 49.8579 116.744 57.9864 106.889 71.07C102.881 76.3591 98.7609 84.9887 97.035 91.5583C95.7545 96.402 95.5318 98.2393 95.5318 106.034C95.4761 116.334 96.4226 121.122 100.041 129.584C105.943 143.28 116.466 154.192 130.05 160.706C135.061 163.1 144.414 165.884 147.476 165.884C148.312 165.884 149.815 166.051 150.761 166.218C152.32 166.552 152.487 166.775 152.487 168.668V170.784L147.365 171.006C138.791 171.396 135.228 174.068 134.783 180.471C134.616 182.308 134.226 183.867 133.892 183.979C126.042 185.983 122.757 188.265 120.196 193.332C118.804 196.116 118.525 197.34 118.525 200.681V204.69L116.187 205.079C114.962 205.302 110.898 205.413 107.168 205.358C98.2598 205.246 98.4825 205.024 98.4825 215.379C98.4825 226.013 97.8701 225.456 109.116 225.456C113.96 225.456 117.969 225.623 118.024 225.846C118.024 226.124 118.136 226.792 118.303 227.405C118.414 228.017 118.414 229.576 118.247 230.801L117.913 233.084L114.851 233.473C108.671 234.197 105.108 236.981 104.05 241.825C103.605 243.773 103.493 254.24 103.605 274.506L103.772 304.347L106.054 307.354C107.335 309.024 113.236 315.705 119.138 322.275C134.616 339.311 135.673 340.592 137.789 344.712C139.849 348.776 141.909 353.954 141.909 355.012C141.909 355.568 134.727 355.735 107.947 355.735H73.9856V348.887C73.9856 339.645 74.3754 339.979 63.7415 340.258C59.2875 340.369 55.6129 340.313 55.6129 340.146C55.6129 339.979 57.0605 339.256 58.8421 338.476C66.4139 335.191 74.6537 328.065 78.3283 321.718C81.4461 316.262 83.005 310.527 83.339 303.29C83.6731 295.718 83.172 294.493 79.7758 294.493C78.0499 294.493 77.9385 294.382 78.4396 293.212C79.3304 290.985 80.5553 284.305 80.8893 279.461C81.5017 271.499 79.5531 269.996 73.2619 273.504C65.022 278.18 57.2832 285.028 52.8849 291.654L50.8806 294.66L50.7136 263.315C50.6579 242.771 50.3795 231.747 50.0455 231.246C49.7114 230.912 48.8206 230.411 48.0412 230.244C43.8099 229.186 34.2338 242.771 31.9512 253.127C31.4501 255.187 30.949 257.525 30.782 258.249C30.615 258.972 30.3923 259.474 30.2809 259.307C30.1696 259.195 29.1674 255.632 28.1096 251.401C26.1053 243.384 25.1588 241.602 22.9318 241.602C19.5913 241.602 18.5892 243.996 20.0367 248.227C20.3708 249.229 20.5935 250.12 20.4821 250.176C20.3708 250.287 17.8097 248.561 14.8033 246.279C8.8461 241.769 6.84181 241.157 5.28292 243.384C3.7797 245.555 4.33645 256.801 6.28506 264.429C6.67479 265.765 6.56344 265.82 4.28077 265.82C2.33215 265.82 1.83108 266.043 1.10731 267.324C-0.117539 269.495 0.995957 279.962 3.16727 286.364L4.72617 291.153L3.61267 291.932C2.55485 292.656 2.4435 293.212 2.49918 299.838C2.49918 304.849 2.83323 308.133 3.50132 310.639C5.83967 319.268 12.4093 328.176 20.3708 333.521C24.6578 336.416 30.8377 339.59 32.1739 339.59C32.6192 339.59 32.7863 339.757 32.5636 340.035C32.3409 340.258 29.3901 340.425 25.9939 340.425C20.5935 340.425 19.814 340.536 19.0903 341.483C18.4222 342.429 18.3108 346.772 18.3108 367.26V391.924H10.5163C2.94458 391.924 2.61053 391.98 1.33001 393.316C-0.395913 394.986 -0.451588 396.935 1.21866 398.494L2.49918 399.718H226.98C450.737 399.718 451.461 399.718 452.574 398.605C454.022 397.157 454.022 394.485 452.574 393.037C451.517 391.98 450.737 391.924 440.382 391.924H429.247L432.309 388.695C438.099 382.682 441.829 375.778 444.279 366.425C445.726 361.136 446.617 339.924 445.559 337.363C444.724 335.414 443.889 335.136 438.6 335.136C436.206 335.136 434.202 335.024 434.202 334.857C434.202 334.746 435.204 333.298 436.429 331.684C439.546 327.62 442.776 321.217 444.78 315.204C446.617 309.748 446.561 307.688 444.613 306.686C442.497 305.517 432.086 309.247 426.853 312.977C425.182 314.091 425.127 314.146 425.516 313.088C426.853 309.748 429.358 301.452 430.082 298.112C430.861 294.493 430.861 294.159 429.859 292.823C428.523 291.097 425.85 290.707 424.626 292.099C424.124 292.656 423.234 295.105 422.566 297.555C421.062 303.234 413.491 326.339 413.268 326.061C413.157 325.949 412.544 324.001 411.987 321.718C410.596 316.262 408.591 311.808 405.585 307.632C401.576 302.009 395.341 296.887 390.441 295.217C388.214 294.437 387.825 294.437 386.6 295.272C384.651 296.553 384.762 299.17 387.156 306.741C388.214 310.138 389.105 313.2 389.105 313.478C389.105 313.756 387.88 313.088 386.433 312.031C379.64 307.187 370.454 304.292 368.338 306.463C367.113 307.688 367.169 309.748 368.505 314.146C370.677 321.161 375.242 329.624 378.972 333.577L380.42 335.136H372.737C365.332 335.136 365.054 335.191 363.717 336.527L362.27 337.975L362.548 351.17C362.771 365.367 363.049 367.093 366.278 374.887C368.283 379.675 371.066 384.018 375.075 388.583L378.026 391.924H364.664C357.259 391.924 351.246 391.813 351.246 391.646C351.246 391.479 351.859 390.365 352.582 389.252C355.812 384.129 356.535 378.005 354.642 371.937C353.529 368.373 349.966 363.029 347.627 361.525L346.291 360.69L347.906 358.129C350.188 354.566 350.467 351.727 349.019 347.829C347.627 344.099 344.565 341.037 341.28 340.146C339.721 339.757 323.576 339.59 289.057 339.701L239.061 339.868L236.779 341.093C232.38 343.431 229.875 347.607 229.708 352.729L229.597 355.735H190.012H150.427L148.868 351.393C145.027 340.703 142.633 336.973 132.389 325.615C117.523 309.135 113.125 304.18 112.234 302.844C111.399 301.619 111.288 298.724 111.288 272.167V242.771L112.735 241.658C114.684 240.154 115.909 240.21 117.802 241.825L119.361 243.161V257.859C119.361 275.174 119.361 275.285 124.928 278.069C127.266 279.238 129.939 281.409 133.836 285.362C143.412 295.105 153.823 304.626 155.661 305.405C156.997 306.018 160.449 306.185 169.357 306.185H181.271L181.939 309.303C183.22 314.87 187.061 317.988 192.851 318.099L196.192 318.155L196.526 321.384C196.971 325.504 199.143 328.789 202.594 330.515C204.988 331.739 205.545 331.795 221.301 331.795H237.614L238.727 330.348C239.73 329.067 239.897 328.065 239.897 323.388C239.897 318.21 239.952 317.876 241.01 317.876C243.794 317.876 247.747 314.926 249.473 311.529C250.92 308.746 250.753 301.898 249.194 300.228C248.526 299.392 248.248 298.168 248.248 295.495V291.821L258.158 291.598C269.46 291.32 271.743 290.707 275.807 287.144C277.199 285.919 279.147 283.358 280.149 281.465L281.931 278.069L282.098 267.88L282.321 257.748H290.616H298.912V259.139C298.912 261.366 300.359 263.649 302.197 264.373C303.254 264.874 305.983 265.041 310.047 264.874L316.227 264.707L317.73 262.925L319.233 261.088L334.265 266.6C349.687 272.223 373.794 281.298 385.208 285.752C409.092 295.105 407.923 294.716 409.538 293.658L410.818 292.823V234.03C410.818 194.612 410.651 174.904 410.261 174.18C409.872 173.512 409.092 173.122 408.09 173.122C407.199 173.122 398.737 176.407 389.272 180.415C355.255 194.835 350.244 197.006 338.163 202.073C331.426 204.912 324.578 207.807 322.908 208.531C319.456 210.09 318.955 210.146 318.955 209.088C318.955 208.642 318.231 207.752 317.34 207.139C315.893 206.137 314.891 205.97 309.045 205.97C302.865 205.97 302.197 206.081 300.86 207.251C300.025 207.919 299.19 209.366 298.968 210.424L298.578 212.373L290.449 212.54L282.321 212.707L282.098 204.467C281.931 196.784 281.82 196.06 280.428 193.443C278.591 190.158 277.588 188.934 274.972 186.929C271.353 184.201 267.901 183.7 251.755 183.7H237.113V181.083C237.113 178.077 235.331 173.957 233.605 172.955C232.937 172.621 231.657 172.008 230.766 171.674L229.096 171.118L232.158 168.668C233.772 167.387 236.612 165.327 238.338 164.158L241.511 161.987L246.411 163.212C253.036 164.826 262.334 164.771 268.458 163.156C287.499 158.09 300.582 140.886 300.582 120.788C300.582 108.706 296.796 99.2971 288.668 90.8345C282.265 84.1536 275.417 80.312 266.286 78.1407C260.107 76.6932 249.974 77.3056 243.237 79.4769C232.492 83.0401 223.083 90.5562 218.295 99.5198C216.402 103.083 216.569 103.361 215.4 95.5669C214.175 87.2714 210.166 77.9737 204.766 70.6803C201.425 66.1706 194.8 59.6567 190.847 56.9286C187.061 54.3119 178.821 50.3033 174.479 49.0228C165.515 46.239 153.99 45.4596 145.528 47.0185ZM169.023 55.3697C188.898 60.4361 204.042 76.0807 208.218 96.0123C209.108 100.244 209.108 111.657 208.218 116.055C206.492 124.685 203.374 131.589 198.14 138.492C180.881 161.43 147.755 165.884 124.204 148.514C110.564 138.437 102.937 123.182 102.937 106.089C102.937 91.3356 108.059 79.3099 118.748 68.7317C126.988 60.6031 137.455 55.5924 149.982 53.7551C153.823 53.1984 163.678 54.0335 169.023 55.3697ZM266.62 85.8795C279.259 89.9994 288.445 99.0187 291.897 110.766C293.511 116.111 293.678 123.683 292.342 128.972C288.946 142.445 278.813 152.856 265.785 156.141C261.164 157.31 253.259 157.199 248.136 155.918C235.498 152.689 225.365 143.002 221.413 130.531C219.909 125.687 219.52 118.06 220.633 113.439C223.138 102.86 231.044 93.0059 240.732 88.4405C246.8 85.5454 251.7 84.5433 258.269 84.8217C261.498 84.9887 265.229 85.4341 266.62 85.8795ZM215.956 137.267C218.629 144.004 224.475 151.576 230.042 155.584C231.768 156.809 233.16 157.978 233.216 158.201C233.216 158.424 230.265 160.873 226.702 163.602L220.132 168.668L219.13 167.387C218.573 166.719 215.734 162.766 212.727 158.646C209.776 154.527 206.436 149.85 205.267 148.347C204.098 146.788 203.151 145.34 203.151 145.062C203.151 144.839 204.042 143.447 205.1 142C206.158 140.552 208.329 136.655 209.888 133.37L212.839 127.357L213.729 130.642C214.23 132.479 215.233 135.43 215.956 137.267ZM198.475 151.798C201.091 155.195 212.059 170.338 212.059 170.561C212.059 170.784 200.423 170.895 186.17 170.895H160.282V168.779V166.664L164.624 165.94C176.984 163.88 187.562 159.259 194.967 152.689C197.361 150.574 197.472 150.518 198.475 151.798ZM228.984 179.58C229.151 180.081 229.318 181.195 229.318 182.086V183.7H185.558H141.798L142.187 181.64C142.41 180.471 142.688 179.357 142.8 179.135C142.967 178.856 162.342 178.689 185.892 178.689C224.363 178.689 228.65 178.801 228.984 179.58ZM403.191 238.15C402.912 271.221 402.69 284.472 402.244 284.249C401.91 284.137 398.236 282.69 394.116 281.075C389.996 279.516 386.433 278.013 386.21 277.846C385.765 277.457 385.319 194.223 385.709 191.55C386.043 189.769 386.266 189.602 393.281 186.651C397.289 184.981 401.019 183.422 401.632 183.199C402.69 182.754 402.745 183.032 403.135 187.263C403.302 189.713 403.358 212.651 403.191 238.15ZM269.07 192.274C270.072 192.719 271.631 194 272.522 195.169L274.137 197.229L274.304 236.424C274.415 273.949 274.415 275.731 273.357 278.013C272.8 279.349 271.353 281.131 270.184 282.022L268.124 283.636L205.434 283.803L142.8 283.915L140.127 281.298L137.399 278.626L198.642 278.347L259.828 278.069L262.222 276.399C263.503 275.452 265.173 273.615 265.897 272.279L267.177 269.829V239.486V209.199L265.674 206.415C264.616 204.523 263.447 203.242 261.888 202.463L259.661 201.238L192.74 201.071C129.048 200.959 125.763 200.904 125.763 199.957C125.763 197.675 128.269 194.056 130.718 192.775L133.168 191.495H200.2C256.265 191.495 267.511 191.606 269.07 192.274ZM377.692 274.339C377.58 274.506 375.966 274.06 374.073 273.337L370.732 272.112V234.086V196.116L374.24 194.779L377.692 193.388L377.859 233.752C377.914 255.91 377.859 274.172 377.692 274.339ZM362.938 234.364C362.938 257.469 362.771 268.883 362.381 268.883C362.047 268.883 359.597 268.047 356.925 266.99C354.253 265.988 350.467 264.54 348.462 263.761L344.844 262.424L344.677 234.865L344.565 207.306L353.028 203.632C357.704 201.627 361.88 199.957 362.27 199.902C362.771 199.846 362.938 207.084 362.938 234.364ZM258.047 209.199C259.828 210.368 259.939 212.094 259.939 239.876V267.713L258.715 269.161L257.434 270.553H193.408C158.222 270.553 128.825 270.553 128.157 270.553C126.932 270.553 126.877 270.33 126.877 266.099V261.645H139.348C150.427 261.645 151.93 261.534 152.933 260.643C154.658 259.139 154.881 257.581 153.545 255.91L152.431 254.407H139.626H126.877V248.84V243.272H139.515C151.708 243.272 152.153 243.217 153.434 242.047C154.937 240.655 155.048 239.041 153.823 237.259C152.988 236.034 152.821 236.034 139.348 236.034H125.763V230.745V225.456H138.568H151.429L152.765 224.064C154.491 222.394 154.547 220.278 152.988 218.72C151.819 217.55 151.429 217.495 138.902 217.717L126.042 217.94L125.875 213.319L125.708 208.754H191.571C227.815 208.754 257.712 208.976 258.047 209.199ZM337.327 235.255V259.474L336.103 259.139C335.379 258.917 331.649 257.581 327.751 256.189L320.625 253.572V235.478V217.328L325.524 215.323C332.205 212.484 335.824 211.092 336.659 211.036C337.16 210.981 337.327 216.159 337.327 235.255ZM117.969 215.156V218.219H112.123H106.277V216.66C106.277 215.824 106.11 214.6 105.943 213.932C105.609 212.762 105.776 212.707 109.673 212.484C111.956 212.428 114.74 212.261 115.909 212.206L117.969 212.094V215.156ZM311.773 213.208C312.775 213.765 312.831 214.6 312.831 234.754C312.831 253.461 312.719 255.799 311.884 256.745C310.882 257.859 308.878 258.026 307.207 257.191C306.205 256.634 306.15 255.799 306.15 235.478C306.15 217.049 306.261 214.266 307.04 213.542C308.043 212.54 310.158 212.373 311.773 213.208ZM298.522 220.668C298.689 221.114 298.689 221.615 298.522 221.782C298.299 221.949 294.569 222.116 290.171 222.116C282.599 222.116 282.209 222.06 282.209 221.002C282.209 219.944 282.599 219.889 290.227 219.889C296.574 219.889 298.299 220.056 298.522 220.668ZM298.355 230.133V231.58H290.282C282.71 231.58 282.209 231.525 282.209 230.523C282.209 229.075 282.543 229.019 291.006 228.852L298.355 228.741V230.133ZM298.355 239.987C298.355 240.99 297.91 241.045 291.117 241.101C287.164 241.157 283.546 241.212 283.212 241.268C282.822 241.324 282.432 240.767 282.321 240.099C282.154 238.874 282.265 238.874 289.837 238.707C294.068 238.596 297.687 238.596 297.965 238.707C298.188 238.818 298.355 239.375 298.355 239.987ZM43.0304 283.915L42.6964 286.42L41.6386 282.078C41.0818 279.684 39.69 275.842 38.6321 273.504L36.6835 269.272L37.5186 263.761C38.5765 256.69 39.7456 252.18 41.5829 248.005L43.0861 244.664L43.2531 263.037C43.3645 273.114 43.2531 282.523 43.0304 283.915ZM298.355 249.396C298.355 250.454 297.965 250.51 290.282 250.51C283.935 250.51 282.209 250.343 282.209 249.786C282.209 249.341 282.376 248.84 282.599 248.673C282.766 248.45 286.441 248.283 290.672 248.283C297.965 248.283 298.355 248.339 298.355 249.396ZM19.7027 260.643C24.9918 265.653 30.3366 273.114 32.2295 278.125C33.7327 282.245 35.1246 288.146 34.9019 289.705C34.7349 290.707 34.5679 290.596 33.4544 288.87C32.7863 287.756 29.1117 283.915 25.2702 280.296C19.647 275.007 17.9768 273.114 16.6963 270.33C15.1374 267.101 12.7433 259.641 12.0196 255.632L11.6298 253.795L13.3001 254.964C14.2466 255.632 17.1417 258.193 19.7027 260.643ZM13.4671 280.964C15.6941 282.412 19.9811 286.086 23.0989 289.204C27.7755 293.881 29.1117 295.551 31.0047 299.504C33.343 304.292 35.0133 309.637 35.0133 312.365C35.0133 313.868 34.9576 313.812 32.1182 311.028C30.5036 309.414 26.7734 306.185 23.8783 303.846C16.4736 297.889 13.6341 293.881 10.2936 284.583C8.90178 280.741 8.45638 278.347 9.12448 278.347C9.2915 278.347 11.2401 279.516 13.4671 280.964ZM71.703 289.594C69.4203 298.168 67.5274 300.896 59.4545 307.187C57.4502 308.746 54.7778 311.14 53.4973 312.532C51.4373 314.759 51.159 314.926 51.159 313.812C51.159 309.859 55.2789 300.951 59.7329 295.105C62.4609 291.598 68.2511 285.975 70.9235 284.416C73.1505 283.024 73.2619 283.692 71.703 289.594ZM240.453 295.05V298.39H199.477H158.5L155.104 295.05L151.652 291.709H196.08H240.453V295.05ZM42.7521 302.12L42.6964 307.577L41.9169 303.958C41.4159 301.341 41.3602 299.838 41.7499 298.502C42.084 297.555 42.418 296.72 42.585 296.72C42.6964 296.72 42.7521 299.17 42.7521 302.12ZM17.1973 308.467C21.4286 311.307 27.4415 316.93 30.1139 320.549C32.2295 323.388 35.0133 328.844 35.8484 331.684C36.1824 332.909 36.1268 332.964 34.9019 332.63C32.3409 331.851 25.2702 327.787 21.9854 325.17C18.4222 322.33 16.0282 319.602 14.0239 316.095C12.5206 313.534 9.9596 306.519 9.9596 305.016C9.9596 303.902 10.0153 303.902 12.0752 305.127C13.1887 305.851 15.5271 307.298 17.1973 308.467ZM75.6559 306.519C75.6559 308.3 73.8186 313.812 72.0927 317.041C71.1462 318.879 68.6965 322.052 66.6366 324.112C63.6301 327.174 61.7929 328.399 56.6151 330.904C53.1633 332.575 50.2682 333.744 50.1568 333.465C49.8784 332.742 53.6087 325.003 55.6686 321.996C58.5637 317.765 63.6858 313.033 69.4203 309.247C72.3711 307.298 74.9878 305.684 75.2662 305.684C75.4889 305.628 75.6559 306.018 75.6559 306.519ZM242.792 307.298C242.736 308.078 242.124 309.191 241.511 309.804C240.453 310.861 239.563 310.917 216.235 311.084L192.016 311.251L190.624 309.859C189.845 309.08 189.232 307.966 189.232 307.354C189.232 306.185 189.511 306.185 214.453 306.018C228.261 305.962 240.398 305.906 241.288 305.906C242.736 305.906 242.959 306.073 242.792 307.298ZM399.683 312.365C402.077 315.816 403.358 318.6 404.416 322.553C405.251 325.393 406.142 334.022 405.696 334.022C405.529 334.022 403.915 331.572 402.133 328.566C399.238 323.834 398.737 322.553 397.902 317.876C397.401 314.981 396.565 311.362 396.12 309.859L395.229 307.131L396.398 308.189C397.067 308.746 398.514 310.639 399.683 312.365ZM379.473 316.874C383.037 318.934 387.769 322.72 390.219 325.504C392.724 328.343 396.343 333.465 396.343 334.133C396.343 334.412 394.951 334.579 393.225 334.579H390.052L386.321 330.737C383.092 327.341 379.919 322.553 377.525 317.208C376.69 315.315 376.801 315.315 379.473 316.874ZM436.429 316.54C436.429 316.707 435.259 319.157 433.812 321.885C432.086 325.337 430.026 328.176 427.576 330.737L423.902 334.579H420.394C418.501 334.579 416.942 334.356 416.942 334.078C416.942 333.187 421.73 327.174 424.681 324.335C426.24 322.776 429.302 320.382 431.529 318.934C435.538 316.318 436.429 315.872 436.429 316.54ZM232.102 321.273V324.557H219.854C212.115 324.557 207.16 324.335 206.325 323.945C204.877 323.277 203.708 321.328 203.708 319.547C203.708 318.489 204.265 318.433 216.68 318.322C223.751 318.21 230.153 318.099 230.877 318.043C232.046 317.932 232.102 318.155 232.102 321.273ZM42.6407 324.669C42.5294 325.671 42.418 325.003 42.418 323.166C42.418 321.328 42.5294 320.493 42.6407 321.328C42.7521 322.163 42.7521 323.667 42.6407 324.669ZM437.319 342.707C438.489 343.041 438.489 343.208 438.21 352.283C437.988 359.855 437.709 362.416 436.651 366.202C434.146 374.887 429.525 382.014 423.122 387.136C417.054 392.035 417.555 391.924 403.469 391.924H391.054L388.27 390.031C384.762 387.693 379.696 382.738 377.469 379.453C375.019 375.945 372.069 369.487 371.011 365.478C369.73 360.746 369.173 343.543 370.231 342.874C371.066 342.373 435.371 342.206 437.319 342.707ZM341.113 348.776C342.561 350.446 342.672 352.729 341.447 354.51C340.668 355.624 340.111 355.735 335.88 355.735H331.203V353.453C331.203 350.613 331.927 349.277 334.154 347.885C336.492 346.438 339.387 346.827 341.113 348.776ZM324.188 348.331C323.966 348.887 323.631 350.78 323.52 352.506L323.297 355.735H280.483H237.67L237.336 354.343C236.834 352.395 237.503 350.279 239.061 348.72L240.398 347.384H282.543C322.407 347.384 324.634 347.44 324.188 348.331ZM66.7479 352.061V356.125L63.4631 356.793C58.3967 357.795 53.887 360.301 50.3795 364.142C46.872 367.928 45.7585 369.821 44.7007 373.83C43.2531 379.23 44.0883 385.132 46.9834 389.363C47.7628 390.476 48.3752 391.534 48.3752 391.646C48.3752 391.813 43.2531 391.924 36.9619 391.924H25.5485V370.322C25.5485 358.408 25.7156 348.498 25.9383 348.331C26.1053 348.108 35.403 347.941 46.538 347.941H66.7479V352.061ZM320.848 364.309C321.85 364.755 323.409 365.979 324.244 367.093L325.747 369.097H335.435H345.122L346.235 370.879C348.407 374.498 348.128 374.665 340.668 374.665C333.152 374.665 331.203 375.221 331.203 377.337C331.203 379.787 332.539 380.177 340.557 380.232C348.685 380.232 348.629 380.177 347.126 383.851L346.291 385.8H336.047H325.803L323.966 388.082C322.963 389.363 321.293 390.699 320.291 391.144C318.732 391.813 306.929 391.924 247.969 391.924H177.541V384.686V377.448H181.16C184.055 377.448 185.001 377.226 185.892 376.335C187.228 374.999 187.34 372.605 186.059 371.213C185.224 370.266 182.719 370.211 129.048 370.211H72.9278L70.7008 372.271C66.0798 376.725 66.6366 384.296 71.9257 387.47C73.3732 388.361 74.7651 388.583 79.3304 388.583C84.1741 388.583 85.1763 388.416 86.4568 387.414C88.0714 386.134 88.3497 384.074 87.0135 382.793C85.9 381.624 84.6195 381.401 79.5531 381.234L75.3775 381.067V379.397V377.727L105.331 377.56L135.228 377.448V384.686V391.924H98.3155H61.4031L58.4524 390.087C54.2211 387.526 52.1054 384.408 51.8271 380.232C51.326 373.05 56.3924 366.314 63.8528 364.309C67.9171 363.196 318.231 363.196 320.848 364.309ZM170.303 384.686V391.924H156.384H142.466V384.686V377.448H156.384H170.303V384.686Z" fill="#1344F0"/>
<path d="M167.686 68.1198C161.784 70.0127 159.557 73.5759 157.776 84.3212L156.551 91.5032L154.714 92.0043C153.712 92.227 152.709 92.2827 152.431 92.0043C152.208 91.7816 150.26 89.0535 148.2 85.9914C143.467 79.1434 140.795 77.2505 135.506 76.9164C129.493 76.5267 124.093 79.8115 119.861 86.2698C115.853 92.5054 114.962 95.8459 114.906 104.921C114.906 112.493 114.962 112.827 116.632 116.334C119.861 123.071 124.649 126.467 130.885 126.467C135.172 126.467 140.572 123.85 146.084 119.174C149.759 116 149.981 115.889 151.373 116.613C152.153 117.002 153.155 117.503 153.712 117.67C154.714 117.949 154.769 117.782 152.208 127.191C149.981 135.598 150.984 139.217 156.44 142.167C162.174 145.341 170.692 143.559 174.033 138.548C177.373 133.482 176.204 128.694 169.468 120.51C167.463 118.06 165.849 115.889 165.849 115.666C165.849 115.443 166.405 114.664 167.129 113.996C167.853 113.272 168.688 112.27 168.966 111.769C169.468 110.878 169.802 110.934 173.643 111.992C179.712 113.662 186.894 113.662 190.791 111.936C197.862 108.762 200.757 100.968 198.363 91.6702C194.132 75.2462 179.879 64.3339 167.686 68.1198ZM176.538 75.8029L178.097 76.3597L176.538 78.1969C175.703 79.1434 172.697 82.7623 169.802 86.2141C166.907 89.6103 164.457 92.2827 164.29 92.1713C163.9 91.7816 165.849 81.2591 166.795 78.5867C168.131 74.8008 171.583 73.8543 176.538 75.8029ZM186.894 84.0428C187.896 85.3233 188.675 86.8265 188.564 87.2719C188.453 87.773 185.446 89.4433 181.438 91.2805C177.596 92.9508 173.643 94.8437 172.585 95.4005C170.247 96.6253 170.581 96.1242 175.536 90.4454C181.772 83.3747 183.887 81.2591 184.5 81.4261C184.778 81.5374 185.892 82.7066 186.894 84.0428ZM137.399 84.8779C138.29 85.3233 140.628 88.0514 142.688 91.0578C146.084 96.1242 146.864 97.7945 145.138 96.4583C144.748 96.1242 141.296 94.454 137.455 92.7281C128.491 88.6081 127.711 88.1071 128.602 87.0492C129.604 85.8244 133.056 84.0985 134.559 84.0428C135.283 84.0428 136.564 84.4325 137.399 84.8779ZM132.555 98.5182C137.009 100.634 140.906 102.415 141.296 102.415C141.63 102.415 141.909 102.638 141.909 102.972C141.909 103.418 124.872 104.03 122.756 103.64C122.033 103.473 121.921 103.028 122.2 101.135C122.701 97.5161 123.536 94.621 124.037 94.621C124.315 94.621 128.101 96.3469 132.555 98.5182ZM191.403 100.244C189.9 106.09 185.168 107.315 174.033 104.698C171.862 104.197 171.026 103.696 171.472 103.306C171.583 103.195 174.478 101.97 177.819 100.578C181.215 99.1863 185.558 97.3491 187.562 96.4026L191.181 94.788L191.57 96.514C191.793 97.4604 191.737 99.1307 191.403 100.244ZM160.281 99.3534C163.9 101.246 164.513 106.09 161.617 109.208C160.337 110.488 159.613 110.767 157.33 110.767C155.103 110.767 154.38 110.488 152.988 109.152C151.652 107.816 151.373 107.036 151.373 104.865C151.373 102.583 151.652 102.026 153.378 100.411C155.605 98.2956 157.665 97.9615 160.281 99.3534ZM142.744 112.214C139.18 115.332 134.17 118.506 132.054 118.895C129.437 119.396 126.208 117.837 124.371 115.276C123.202 113.55 122.589 111.546 123.146 111.268C123.257 111.156 137.343 110.488 142.465 110.321L144.971 110.21L142.744 112.214ZM164.345 125.966C168.076 130.865 168.911 132.647 167.964 134.15C165.849 137.546 158.611 136.934 158.611 133.371C158.611 132.202 160.838 121.902 161.116 121.902C161.172 121.902 162.62 123.739 164.345 125.966Z" fill="#4DDEC4"/>
<path d="M155.66 102.804C154.825 103.639 155.27 106.311 156.384 106.868C158.722 108.093 160.949 104.975 159.056 103.082C158.333 102.359 156.273 102.192 155.66 102.804Z" fill="#1344F0"/>
<path d="M251.31 92.8938C245.742 95.3992 243.571 101.913 246.355 107.481C247.246 109.262 250.809 112.436 251.867 112.436C252.98 112.436 252.924 113.382 251.811 113.995C251.366 114.273 250.475 115.164 249.918 115.999L248.916 117.558L248.248 115.498C247.413 112.992 244.295 109.374 241.901 108.149C240.899 107.648 238.839 107.258 237.001 107.258C232.492 107.258 229.04 109.374 226.98 113.493C223.974 119.395 225.699 125.519 231.156 128.637C236.389 131.532 243.571 129.695 246.745 124.573L248.415 121.9L249.361 123.404C250.475 125.241 251.867 126.466 253.982 127.579L255.541 128.359L253.036 130.14C244.351 136.376 248.192 149.738 258.603 149.738C266.565 149.738 271.798 141.609 268.346 134.761C267.01 132.2 263.781 129.249 261.721 128.804C260.886 128.637 259.995 128.414 259.772 128.359C259.55 128.303 260.441 127.468 261.832 126.521C263.28 125.519 264.393 124.461 264.393 124.127C264.393 122.958 265.396 123.626 265.785 125.074C266.676 128.804 270.796 132.033 275.417 132.813C277.143 133.091 278.368 132.868 280.706 131.755C288.612 128.136 289.503 117.78 282.321 112.77C280.428 111.434 279.481 111.155 276.809 111.155C272.856 111.155 270.796 112.157 267.901 115.442L265.73 117.892L264.171 115.999C263.336 114.941 261.999 113.772 261.164 113.493L259.717 112.937L262.334 110.598C265.284 107.815 266.064 106.2 266.064 102.359C266.064 94.4527 258.492 89.609 251.31 92.8938ZM257.601 99.9645C259.16 101.022 259.216 103.695 257.713 105.198C256.265 106.645 255.151 106.59 253.537 104.92C251.811 103.249 251.811 102.024 253.37 100.354C254.762 98.851 255.875 98.7397 257.601 99.9645ZM240.119 115.776C241.734 117.335 241.511 120.119 239.674 121.733C238.839 122.401 237.558 123.014 236.779 123.014C234.886 123.014 232.659 120.676 232.659 118.727C232.715 114.718 237.224 112.937 240.119 115.776ZM278.535 119.172C279.481 119.896 279.982 120.843 279.982 121.9C279.982 123.515 277.811 125.798 276.252 125.798C275.083 125.798 272.745 123.237 272.745 121.9C272.745 120.564 275.083 118.003 276.252 118.003C276.698 118.003 277.7 118.504 278.535 119.172ZM258.548 119.117C259.104 120.063 258.269 121.9 257.211 121.9C255.708 121.9 254.873 120.787 255.541 119.562C256.098 118.504 257.991 118.226 258.548 119.117ZM261.276 136.877C262.612 138.38 262.222 140.774 260.385 142.11L258.826 143.28L257.323 142.11C254.428 139.995 255.43 135.819 258.826 135.819C259.661 135.819 260.775 136.32 261.276 136.877Z" fill="#4DDEC4"/>
<path d="M203.263 221.892C202.205 222.449 200.813 223.73 200.033 224.843C198.753 226.736 198.697 227.237 198.697 235.366C198.697 245.61 199.31 247.392 203.43 249.396C205.768 250.509 206.603 250.621 214.787 250.398C222.749 250.231 223.862 250.12 225.198 249.062C228.706 246.445 229.04 245.554 229.263 236.98C229.485 227.905 229.04 225.901 226.256 223.229L224.252 221.28L214.676 221.113C206.659 221.002 204.821 221.113 203.263 221.892ZM220.299 228.573C221.468 228.907 221.524 229.13 221.524 235.811V242.715H214.064C207.772 242.715 206.547 242.603 206.269 241.824C205.768 240.599 205.879 230.299 206.38 229.52C206.993 228.518 217.46 227.85 220.299 228.573Z" fill="#4DDEC4"/>
<path d="M211.614 231.97C210.445 232.416 209.164 235.478 209.498 236.925C209.944 238.596 212.727 240.043 214.565 239.598C216.068 239.208 218.184 236.925 218.184 235.645C218.184 235.2 217.46 234.086 216.569 233.195C215.01 231.692 213.34 231.247 211.614 231.97Z" fill="#4DDEC4"/>
<path d="M243.405 234.921C240.899 235.924 240.175 239.932 242.124 242.048C243.85 243.885 247.246 243.718 248.749 241.825C250.364 239.765 250.197 237.928 248.304 235.979C246.634 234.309 245.52 234.086 243.405 234.921Z" fill="#1344F0"/>
<path d="M163.232 255.242C162.62 255.687 161.952 256.745 161.785 257.58C161.117 261.032 164.401 263.537 167.519 261.923C169.523 260.92 169.802 260.419 169.857 258.192C169.969 255.075 166.016 253.293 163.232 255.242Z" fill="#1344F0"/>
<path d="M196.304 371.213C195.134 372.494 195.079 375.444 196.248 376.558C196.693 377.059 197.974 377.449 198.976 377.449C201.147 377.449 202.595 375.834 202.595 373.44C202.595 370.601 198.197 369.098 196.304 371.213Z" fill="#1344F0"/>
<path d="M209.053 371.436C207.884 373.106 207.939 374.22 209.331 376.001L210.445 377.449L259.55 377.56L308.655 377.727L308.822 379.063C309.156 381.068 308.21 381.513 303.366 381.569C298.355 381.624 297.242 382.293 297.242 385.355C297.242 387.971 299.135 388.695 305.426 388.472C311.884 388.25 313.944 387.192 315.726 383.128C317.507 379.119 316.004 373.329 312.608 371.269C310.938 370.267 308.822 370.211 260.385 370.211H209.888L209.053 371.436Z" fill="#1344F0"/>
<path d="M55.0559 375.777C53.497 377.336 53.7754 379.507 55.724 380.955C57.6727 382.402 60.011 381.79 61.1245 379.452C61.7926 378.06 61.7369 377.726 60.7904 376.389C59.3429 374.441 56.6705 374.162 55.0559 375.777Z" fill="#1344F0"/>
<path d="M95.0304 382.292C93.5828 384.018 93.4715 384.575 94.0282 386.022C95.1417 388.973 99.3173 388.973 100.654 385.966C102.101 382.849 97.313 379.675 95.0304 382.292Z" fill="#1344F0"/>
<path d="M148.2 380.901C146.697 382.794 146.363 384.074 146.976 385.41C147.922 387.526 149.759 388.027 156.997 388.027C163.344 388.027 163.734 387.971 165.014 386.635C167.13 384.575 166.852 382.181 164.346 380.845C162.62 379.954 148.924 380.01 148.2 380.901Z" fill="#1344F0"/>
<path d="M325.135 63.2189C324.467 64.0541 323.966 65.5016 323.966 66.5594C323.966 68.8978 323.075 71.2361 321.85 72.1269C321.349 72.5723 319.456 72.9064 317.73 72.9064C314.334 72.9064 313.109 73.6301 312.497 76.0798C312.218 77.0263 312.497 77.9171 313.221 78.9192C314.111 80.1441 314.835 80.4225 317.062 80.5895C322.63 80.8679 323.298 81.4803 324.022 86.8251C324.523 90.1099 325.469 91.2791 327.863 91.2791C329.923 91.2791 331.315 89.5531 331.816 86.2126C332.484 82.0927 333.932 80.7008 337.662 80.7008C341.392 80.7008 342.171 80.3668 343.174 78.4182C343.786 77.3047 343.842 76.4696 343.452 75.4674C342.784 73.5745 341.281 72.9064 337.94 72.9064C333.932 72.9064 332.428 71.4588 331.816 66.8378C331.315 62.9406 330.368 61.7714 327.807 61.7714C326.805 61.7714 325.859 62.2725 325.135 63.2189ZM329.533 75.4674C330.146 76.1912 330.09 76.5252 329.088 77.4717C327.919 78.6409 327.863 78.6409 326.75 77.6387C325.692 76.6923 325.692 76.5809 326.527 75.5788C327.696 74.3539 328.587 74.2982 329.533 75.4674Z" fill="#18194F"/>
<path d="M387.268 137.378C386.154 138.547 385.208 139.883 385.208 140.384C385.208 141.219 389.217 145.284 390.107 145.284C390.33 145.284 391.666 144.17 393.002 142.778L395.452 140.273L394.06 138.77C392.223 136.654 390.608 135.262 389.94 135.262C389.606 135.262 388.381 136.209 387.268 137.378Z" fill="#18194F"/>
<path d="M349.688 154.082C349.02 154.193 348.073 154.972 347.628 155.919C346.848 157.366 346.848 157.701 347.572 159.148C348.63 161.097 350.133 161.542 355.534 161.375C360.322 161.264 362.382 160.095 362.382 157.645C362.326 154.583 361.157 153.915 355.812 153.915C353.14 153.915 350.412 153.97 349.688 154.082Z" fill="#18194F"/>
<path d="M75.9342 168.501C74.7094 169.837 73.6515 171.173 73.5402 171.396C73.4845 171.674 74.5423 172.899 75.9899 174.235L78.5509 176.574L81.0006 174.18C82.3368 172.844 83.4503 171.507 83.4503 171.229C83.4503 170.617 78.9963 165.884 78.4396 165.94C78.2725 165.94 77.159 167.109 75.9342 168.501Z" fill="#18194F"/>
<path d="M307.374 171.842C306.706 171.953 305.76 172.844 305.259 173.735C304.591 175.127 304.535 175.628 305.147 176.909L305.871 178.412L314.779 178.579C323.186 178.69 323.798 178.634 324.967 177.577C326.526 176.073 326.526 174.18 324.912 172.677C323.687 171.508 323.13 171.452 316.115 171.508C311.995 171.564 308.098 171.731 307.374 171.842Z" fill="#18194F"/>
<path d="M48.4868 204.467C47.2063 205.748 46.1484 207.084 46.1484 207.418C46.1484 208.309 50.2684 212.095 51.2148 212.095C52.05 212.095 56.1699 208.086 56.1699 207.251C56.1699 206.75 51.6602 202.073 51.1592 202.073C50.9921 202.073 49.7673 203.131 48.4868 204.467Z" fill="#18194F"/>
<path d="M16.4181 215.546C15.9171 216.214 15.5273 217.16 15.5273 217.661C15.5273 218.162 15.9171 219.109 16.4181 219.777C18.1441 222.282 22.7651 220.612 22.7651 217.494C22.7651 214.488 18.0884 213.096 16.4181 215.546Z" fill="#1344F0"/>
<path d="M17.1975 229.353C16.5851 229.966 16.084 230.968 16.084 231.58C16.084 234.364 20.4823 235.979 22.3752 233.919C25.4374 230.523 20.4266 226.124 17.1975 229.353Z" fill="#1344F0"/>
<path d="M329.254 292.935C327.751 293.77 327.306 294.494 327.306 296.22C327.306 298.725 328.809 299.504 333.82 299.504C337.438 299.504 338.441 299.337 339.164 298.502C340.389 297.166 340.389 294.271 339.164 293.324C338.051 292.378 330.813 292.1 329.254 292.935Z" fill="#18194F"/>
<path d="M296.073 301.564C295.349 302.454 294.236 303.679 293.623 304.403L292.565 305.684L295.015 308.133C296.351 309.525 297.688 310.639 298.022 310.639C298.801 310.639 302.81 306.24 302.81 305.405C302.81 304.793 298.244 300.06 297.632 300.06C297.52 300.06 296.852 300.729 296.073 301.564Z" fill="#18194F"/>
<path d="M158.055 317.321C155.995 319.38 156.607 321.106 161.173 326.507C167.019 333.411 169.524 337.141 173.087 344.267C176.65 351.338 178.154 352.73 180.77 351.226C182.051 350.503 182.273 350.057 182.218 347.886C182.162 342.708 173.198 328.121 164.792 319.492C161.34 315.929 159.892 315.483 158.055 317.321Z" fill="#1344F0"/>
<path d="M369 298L386.5 293L448.5 303L454 400H9L22 229L44.5 225L54.5 229L81 262L91.5 340L96.5 298.5V225.5H119V275L132.5 316L154.5 311.5L208 340L303.5 332.5L330 326L341.5 313.5L354.5 335.5L369 298Z" fill="#F2F6FF"/>
</svg>
