<svg width="1286" height="196" viewBox="0 0 1286 196" fill="none" xmlns="http://www.w3.org/2000/svg">
<circle cx="8" cy="8" r="6.5" stroke="#1344F0" stroke-width="3"/>
<circle cx="124" cy="8" r="6.5" stroke="#1344F0" stroke-width="3"/>
<circle cx="240" cy="8" r="6.5" stroke="#1344F0" stroke-width="3"/>
<circle cx="356" cy="8" r="6.5" stroke="#1344F0" stroke-width="3"/>
<circle cx="472" cy="8" r="6.5" stroke="#1344F0" stroke-width="3"/>
<circle cx="588" cy="8" r="6.5" stroke="#1344F0" stroke-width="3"/>
<circle cx="704" cy="8" r="6.5" stroke="#1344F0" stroke-width="3"/>
<circle cx="820" cy="8" r="6.5" stroke="#1344F0" stroke-width="3"/>
<circle cx="936" cy="8" r="6.5" stroke="#1344F0" stroke-width="3"/>
<circle cx="1107" cy="8" r="6.5" stroke="#1344F0" stroke-width="3"/>
<circle cx="148.5" cy="28" r="6.5" stroke="#1344F0" stroke-width="3"/>
<circle cx="264.5" cy="28" r="6.5" stroke="#1344F0" stroke-width="3"/>
<circle cx="380.5" cy="28" r="6.5" stroke="#1344F0" stroke-width="3"/>
<circle cx="496.5" cy="28" r="6.5" stroke="#1344F0" stroke-width="3"/>
<circle cx="612.5" cy="28" r="6.5" stroke="#1344F0" stroke-width="3"/>
<circle cx="728.5" cy="28" r="6.5" stroke="#1344F0" stroke-width="3"/>
<circle cx="844.5" cy="28" r="6.5" stroke="#1344F0" stroke-width="3"/>
<circle cx="960.5" cy="28" r="6.5" stroke="#1344F0" stroke-width="3"/>
<circle cx="1076.5" cy="28" r="6.5" stroke="#1344F0" stroke-width="3"/>
<circle cx="1192.5" cy="28" r="6.5" stroke="#1344F0" stroke-width="3"/>
<circle cx="191.25" cy="48" r="6.5" stroke="#1344F0" stroke-width="3"/>
<circle cx="307.25" cy="48" r="6.5" stroke="#1344F0" stroke-width="3"/>
<circle cx="423.25" cy="48" r="6.5" stroke="#1344F0" stroke-width="3"/>
<circle cx="539.25" cy="48" r="6.5" stroke="#1344F0" stroke-width="3"/>
<circle cx="655.25" cy="48" r="6.5" stroke="#1344F0" stroke-width="3"/>
<circle cx="771.25" cy="48" r="6.5" stroke="#1344F0" stroke-width="3"/>
<circle cx="887.25" cy="48" r="6.5" stroke="#1344F0" stroke-width="3"/>
<circle cx="1003.25" cy="48" r="6.5" stroke="#1344F0" stroke-width="3"/>
<circle cx="1119.25" cy="48" r="6.5" stroke="#1344F0" stroke-width="3"/>
<circle cx="1235.25" cy="48" r="6.5" stroke="#1344F0" stroke-width="3"/>
<circle cx="212.625" cy="68" r="6.5" stroke="#1344F0" stroke-width="3"/>
<circle cx="328.625" cy="68" r="6.5" stroke="#1344F0" stroke-width="3"/>
<circle cx="444.625" cy="68" r="6.5" stroke="#1344F0" stroke-width="3"/>
<circle cx="560.625" cy="68" r="6.5" stroke="#1344F0" stroke-width="3"/>
<circle cx="676.625" cy="68" r="6.5" stroke="#1344F0" stroke-width="3"/>
<circle cx="792.625" cy="68" r="6.5" stroke="#1344F0" stroke-width="3"/>
<circle cx="908.625" cy="68" r="6.5" stroke="#1344F0" stroke-width="3"/>
<circle cx="1024.62" cy="68" r="6.5" stroke="#1344F0" stroke-width="3"/>
<circle cx="1140.62" cy="68" r="6.5" stroke="#1344F0" stroke-width="3"/>
<circle cx="1256.62" cy="68" r="6.5" stroke="#1344F0" stroke-width="3"/>
<circle cx="223.312" cy="88" r="6.5" stroke="#1344F0" stroke-width="3"/>
<circle cx="339.312" cy="88" r="6.5" stroke="#1344F0" stroke-width="3"/>
<circle cx="455.312" cy="88" r="6.5" stroke="#1344F0" stroke-width="3"/>
<circle cx="571.312" cy="88" r="6.5" stroke="#1344F0" stroke-width="3"/>
<circle cx="687.312" cy="88" r="6.5" stroke="#1344F0" stroke-width="3"/>
<circle cx="803.312" cy="88" r="6.5" stroke="#1344F0" stroke-width="3"/>
<circle cx="919.312" cy="88" r="6.5" stroke="#1344F0" stroke-width="3"/>
<circle cx="1035.31" cy="88" r="6.5" stroke="#1344F0" stroke-width="3"/>
<circle cx="1151.31" cy="88" r="6.5" stroke="#1344F0" stroke-width="3"/>
<circle cx="1267.31" cy="88" r="6.5" stroke="#1344F0" stroke-width="3"/>
<circle cx="228.656" cy="108" r="6.5" stroke="#1344F0" stroke-width="3"/>
<circle cx="344.656" cy="108" r="6.5" stroke="#1344F0" stroke-width="3"/>
<circle cx="460.656" cy="108" r="6.5" stroke="#1344F0" stroke-width="3"/>
<circle cx="576.656" cy="108" r="6.5" stroke="#1344F0" stroke-width="3"/>
<circle cx="692.656" cy="108" r="6.5" stroke="#1344F0" stroke-width="3"/>
<circle cx="808.656" cy="108" r="6.5" stroke="#1344F0" stroke-width="3"/>
<circle cx="924.656" cy="108" r="6.5" stroke="#1344F0" stroke-width="3"/>
<circle cx="1040.66" cy="108" r="6.5" stroke="#1344F0" stroke-width="3"/>
<circle cx="1156.66" cy="108" r="6.5" stroke="#1344F0" stroke-width="3"/>
<circle cx="1272.66" cy="108" r="6.5" stroke="#1344F0" stroke-width="3"/>
<circle cx="231.328" cy="128" r="6.5" stroke="#1344F0" stroke-width="3"/>
<circle cx="347.328" cy="128" r="6.5" stroke="#1344F0" stroke-width="3"/>
<circle cx="463.328" cy="128" r="6.5" stroke="#1344F0" stroke-width="3"/>
<circle cx="579.328" cy="128" r="6.5" stroke="#1344F0" stroke-width="3"/>
<circle cx="695.328" cy="128" r="6.5" stroke="#1344F0" stroke-width="3"/>
<circle cx="811.328" cy="128" r="6.5" stroke="#1344F0" stroke-width="3"/>
<circle cx="927.328" cy="128" r="6.5" stroke="#1344F0" stroke-width="3"/>
<circle cx="1043.33" cy="128" r="6.5" stroke="#1344F0" stroke-width="3"/>
<circle cx="1159.33" cy="128" r="6.5" stroke="#1344F0" stroke-width="3"/>
<circle cx="1275.33" cy="128" r="6.5" stroke="#1344F0" stroke-width="3"/>
<circle cx="232.664" cy="148" r="6.5" stroke="#1344F0" stroke-width="3"/>
<circle cx="348.664" cy="148" r="6.5" stroke="#1344F0" stroke-width="3"/>
<circle cx="464.664" cy="148" r="6.5" stroke="#1344F0" stroke-width="3"/>
<circle cx="580.664" cy="148" r="6.5" stroke="#1344F0" stroke-width="3"/>
<circle cx="696.664" cy="148" r="6.5" stroke="#1344F0" stroke-width="3"/>
<circle cx="812.664" cy="148" r="6.5" stroke="#1344F0" stroke-width="3"/>
<circle cx="928.664" cy="148" r="6.5" stroke="#1344F0" stroke-width="3"/>
<circle cx="1044.66" cy="148" r="6.5" stroke="#1344F0" stroke-width="3"/>
<circle cx="1160.66" cy="148" r="6.5" stroke="#1344F0" stroke-width="3"/>
<circle cx="1276.66" cy="148" r="6.5" stroke="#1344F0" stroke-width="3"/>
<circle cx="233.332" cy="168" r="6.5" stroke="#1344F0" stroke-width="3"/>
<circle cx="349.332" cy="168" r="6.5" stroke="#1344F0" stroke-width="3"/>
<circle cx="465.332" cy="168" r="6.5" stroke="#1344F0" stroke-width="3"/>
<circle cx="581.332" cy="168" r="6.5" stroke="#1344F0" stroke-width="3"/>
<circle cx="697.332" cy="168" r="6.5" stroke="#1344F0" stroke-width="3"/>
<circle cx="813.332" cy="168" r="6.5" stroke="#1344F0" stroke-width="3"/>
<circle cx="929.332" cy="168" r="6.5" stroke="#1344F0" stroke-width="3"/>
<circle cx="1045.33" cy="168" r="6.5" stroke="#1344F0" stroke-width="3"/>
<circle cx="1161.33" cy="168" r="6.5" stroke="#1344F0" stroke-width="3"/>
<circle cx="1277.33" cy="168" r="6.5" stroke="#1344F0" stroke-width="3"/>
<circle cx="233.666" cy="188" r="6.5" stroke="#1344F0" stroke-width="3"/>
<circle cx="349.666" cy="188" r="6.5" stroke="#1344F0" stroke-width="3"/>
<circle cx="465.666" cy="188" r="6.5" stroke="#1344F0" stroke-width="3"/>
<circle cx="581.666" cy="188" r="6.5" stroke="#1344F0" stroke-width="3"/>
<circle cx="697.666" cy="188" r="6.5" stroke="#1344F0" stroke-width="3"/>
<circle cx="813.666" cy="188" r="6.5" stroke="#1344F0" stroke-width="3"/>
<circle cx="929.666" cy="188" r="6.5" stroke="#1344F0" stroke-width="3"/>
<circle cx="1045.67" cy="188" r="6.5" stroke="#1344F0" stroke-width="3"/>
<circle cx="1161.67" cy="188" r="6.5" stroke="#1344F0" stroke-width="3"/>
<circle cx="1277.67" cy="188" r="6.5" stroke="#1344F0" stroke-width="3"/>
</svg>
