<svg width="389" height="627" viewBox="0 0 389 627" fill="none" xmlns="http://www.w3.org/2000/svg">
<rect width="357" height="566" transform="translate(15 46)" fill="#1344F0"/>
<path d="M169.084 439.212C171.41 438.337 172.587 435.743 171.712 433.416C170.838 431.09 168.243 429.913 165.917 430.788L169.084 439.212ZM71 585.5L74.5223 588.3L71 585.5ZM71 510.5L75.2473 511.987L71 510.5ZM15.6062 607.692C16.039 612.171 16.04 612.171 16.0412 612.171C16.0418 612.171 16.0432 612.171 16.0444 612.17C16.0468 612.17 16.0499 612.17 16.0536 612.17C16.061 612.169 16.0708 612.168 16.0831 612.167C16.1077 612.164 16.1421 612.161 16.186 612.156C16.2738 612.147 16.3998 612.134 16.5618 612.116C16.8859 612.08 17.3544 612.026 17.951 611.952C19.1438 611.802 20.8507 611.569 22.9391 611.232C27.109 610.559 32.8346 609.465 39.0436 607.779C51.1532 604.491 66.2932 598.651 74.5223 588.3L67.4776 582.699C61.2037 590.59 48.6468 595.846 36.6853 599.094C30.8587 600.676 25.4552 601.709 21.5048 602.347C19.5331 602.665 17.9321 602.884 16.832 603.021C16.2822 603.09 15.8581 603.139 15.5761 603.17C15.4351 603.186 15.3297 603.197 15.2619 603.204C15.228 603.207 15.2035 603.21 15.1887 603.211C15.1812 603.212 15.1762 603.212 15.1737 603.213C15.1724 603.213 15.1718 603.213 15.1717 603.213C15.1717 603.213 15.1721 603.213 15.1721 603.213C15.1727 603.213 15.1734 603.213 15.6062 607.692ZM74.5223 588.3C85.1606 574.92 82.0281 560.985 78.5391 548.553C74.9115 535.628 70.9781 524.182 75.2473 511.987L66.7527 509.013C61.3446 524.462 66.5252 539.053 69.8739 550.985C73.3612 563.411 75.0674 573.153 67.4776 582.699L74.5223 588.3ZM75.2473 511.987C78.8713 501.634 86.3274 491.856 95.8289 482.93C105.303 474.03 116.579 466.192 127.486 459.677C138.378 453.171 148.801 448.044 156.507 444.543C160.356 442.794 163.518 441.454 165.71 440.555C166.806 440.106 167.658 439.766 168.233 439.541C168.52 439.429 168.737 439.345 168.881 439.29C168.952 439.262 169.005 439.242 169.039 439.229C169.057 439.222 169.069 439.218 169.076 439.215C169.08 439.214 169.082 439.213 169.084 439.212C169.084 439.212 169.084 439.212 169.085 439.212C169.084 439.212 169.084 439.212 167.5 435C165.917 430.788 165.915 430.788 165.914 430.789C165.913 430.789 165.911 430.79 165.909 430.791C165.906 430.792 165.901 430.794 165.895 430.796C165.883 430.801 165.866 430.807 165.844 430.815C165.8 430.832 165.737 430.856 165.656 430.887C165.493 430.95 165.255 431.042 164.948 431.162C164.332 431.404 163.436 431.76 162.294 432.228C160.012 433.165 156.746 434.548 152.784 436.349C144.865 439.947 134.128 445.227 122.871 451.951C111.629 458.666 99.769 466.88 89.6667 476.371C79.5923 485.835 71.0335 496.785 66.7527 509.013L75.2473 511.987Z" fill="#4DDEC4"/>
<path d="M288.515 88.0083C290.168 86.1518 293.012 85.9862 294.869 87.6385C296.725 89.2908 296.891 92.1352 295.238 93.9917L288.515 88.0083ZM318.377 164L314.855 166.801L318.377 164ZM247.377 141L247.371 145.5L237.36 145.486L244.016 138.008L247.377 141ZM369.418 228.844C365.876 231.621 365.876 231.621 365.876 231.62C365.876 231.62 365.875 231.62 365.875 231.619C365.874 231.617 365.872 231.615 365.87 231.612C365.865 231.607 365.859 231.598 365.85 231.587C365.832 231.565 365.806 231.531 365.771 231.487C365.702 231.398 365.598 231.266 365.463 231.093C365.192 230.748 364.792 230.238 364.279 229.583C363.251 228.274 361.768 226.382 359.942 224.056C356.29 219.402 351.271 213.008 345.798 206.043C334.849 192.11 322.097 175.909 314.855 166.801L321.899 161.199C329.16 170.332 341.928 186.553 352.874 200.482C358.349 207.449 363.37 213.845 367.022 218.5C368.849 220.827 370.333 222.719 371.36 224.029C371.874 224.684 372.274 225.194 372.545 225.54C372.681 225.713 372.784 225.845 372.854 225.934C372.889 225.978 372.915 226.012 372.933 226.034C372.941 226.045 372.948 226.054 372.952 226.059C372.955 226.062 372.956 226.064 372.957 226.066C372.958 226.067 372.958 226.067 372.959 226.067C372.959 226.068 372.959 226.068 369.418 228.844ZM314.855 166.801C310.931 161.866 304.951 157.938 297.815 154.868C290.712 151.813 282.756 149.732 275.217 148.326C267.695 146.924 260.707 146.215 255.594 145.859C253.042 145.68 250.966 145.591 249.538 145.545C248.824 145.523 248.272 145.511 247.903 145.506C247.719 145.503 247.581 145.501 247.491 145.5C247.446 145.5 247.414 145.5 247.394 145.5C247.383 145.5 247.376 145.5 247.373 145.5C247.371 145.5 247.37 145.5 247.369 145.5C247.369 145.5 247.369 145.5 247.369 145.5C247.37 145.5 247.371 145.5 247.377 141C247.383 136.5 247.385 136.5 247.386 136.5C247.387 136.5 247.388 136.5 247.39 136.5C247.392 136.5 247.396 136.5 247.401 136.5C247.41 136.5 247.422 136.5 247.437 136.5C247.468 136.5 247.511 136.5 247.567 136.501C247.678 136.502 247.838 136.503 248.045 136.507C248.458 136.513 249.058 136.526 249.823 136.55C251.351 136.598 253.541 136.693 256.221 136.88C261.572 137.254 268.916 137.997 276.866 139.479C284.799 140.958 293.453 143.194 301.372 146.601C309.257 149.993 316.709 154.671 321.899 161.199L314.855 166.801ZM244.016 138.008L288.515 88.0083L295.238 93.9917L250.739 143.991L244.016 138.008Z" fill="#4DDEC4"/>
<path d="M170.688 118.222C172.217 116.263 171.869 113.435 169.909 111.906C167.95 110.377 165.122 110.726 163.593 112.685L170.688 118.222ZM103.5 197L99.5867 199.222L102.908 205.073L107.048 199.769L103.5 197ZM14.9966 50.2218L99.5867 199.222L107.413 194.778L22.8233 45.7784L14.9966 50.2218ZM107.048 199.769L170.688 118.222L163.593 112.685L99.9525 194.231L107.048 199.769Z" fill="#4DDEC4"/>
</svg>
