<svg width="303" height="101" viewBox="0 0 303 101" fill="none" xmlns="http://www.w3.org/2000/svg">
<circle cx="4.56317" cy="4.56317" r="3.33212" stroke="#1344F0" stroke-width="1.5379"/>
<circle cx="64.0287" cy="4.56317" r="3.33212" stroke="#1344F0" stroke-width="1.5379"/>
<circle cx="123.494" cy="4.56317" r="3.33212" stroke="#1344F0" stroke-width="1.5379"/>
<circle cx="182.96" cy="4.56317" r="3.33212" stroke="#1344F0" stroke-width="1.5379"/>
<circle cx="242.425" cy="4.56317" r="3.33212" stroke="#1344F0" stroke-width="1.5379"/>
<circle cx="17.1227" cy="14.8159" r="3.33212" stroke="#1344F0" stroke-width="1.5379"/>
<circle cx="76.5883" cy="14.8159" r="3.33212" stroke="#1344F0" stroke-width="1.5379"/>
<circle cx="136.054" cy="14.8159" r="3.33212" stroke="#1344F0" stroke-width="1.5379"/>
<circle cx="195.519" cy="14.8159" r="3.33212" stroke="#1344F0" stroke-width="1.5379"/>
<circle cx="254.985" cy="14.8159" r="3.33212" stroke="#1344F0" stroke-width="1.5379"/>
<circle cx="39.0378" cy="25.0685" r="3.33212" stroke="#1344F0" stroke-width="1.5379"/>
<circle cx="98.5034" cy="25.0685" r="3.33212" stroke="#1344F0" stroke-width="1.5379"/>
<circle cx="157.969" cy="25.0685" r="3.33212" stroke="#1344F0" stroke-width="1.5379"/>
<circle cx="217.434" cy="25.0685" r="3.33212" stroke="#1344F0" stroke-width="1.5379"/>
<circle cx="276.9" cy="25.0685" r="3.33212" stroke="#1344F0" stroke-width="1.5379"/>
<circle cx="49.9953" cy="35.3212" r="3.33212" stroke="#1344F0" stroke-width="1.5379"/>
<circle cx="109.461" cy="35.3212" r="3.33212" stroke="#1344F0" stroke-width="1.5379"/>
<circle cx="168.926" cy="35.3212" r="3.33212" stroke="#1344F0" stroke-width="1.5379"/>
<circle cx="228.392" cy="35.3212" r="3.33212" stroke="#1344F0" stroke-width="1.5379"/>
<circle cx="287.857" cy="35.3212" r="3.33212" stroke="#1344F0" stroke-width="1.5379"/>
<circle cx="55.4741" cy="45.5739" r="3.33212" stroke="#1344F0" stroke-width="1.5379"/>
<circle cx="114.94" cy="45.5739" r="3.33212" stroke="#1344F0" stroke-width="1.5379"/>
<circle cx="174.405" cy="45.5739" r="3.33212" stroke="#1344F0" stroke-width="1.5379"/>
<circle cx="233.871" cy="45.5739" r="3.33212" stroke="#1344F0" stroke-width="1.5379"/>
<circle cx="293.336" cy="45.5739" r="3.33212" stroke="#1344F0" stroke-width="1.5379"/>
<circle cx="58.2136" cy="55.8266" r="3.33212" stroke="#1344F0" stroke-width="1.5379"/>
<circle cx="117.679" cy="55.8266" r="3.33212" stroke="#1344F0" stroke-width="1.5379"/>
<circle cx="177.144" cy="55.8266" r="3.33212" stroke="#1344F0" stroke-width="1.5379"/>
<circle cx="236.61" cy="55.8266" r="3.33212" stroke="#1344F0" stroke-width="1.5379"/>
<circle cx="296.076" cy="55.8266" r="3.33212" stroke="#1344F0" stroke-width="1.5379"/>
<circle cx="59.5832" cy="66.0793" r="3.33212" stroke="#1344F0" stroke-width="1.5379"/>
<circle cx="119.049" cy="66.0793" r="3.33212" stroke="#1344F0" stroke-width="1.5379"/>
<circle cx="178.514" cy="66.0793" r="3.33212" stroke="#1344F0" stroke-width="1.5379"/>
<circle cx="237.98" cy="66.0793" r="3.33212" stroke="#1344F0" stroke-width="1.5379"/>
<circle cx="297.445" cy="66.0793" r="3.33212" stroke="#1344F0" stroke-width="1.5379"/>
<circle cx="60.268" cy="76.332" r="3.33212" stroke="#1344F0" stroke-width="1.5379"/>
<circle cx="119.734" cy="76.332" r="3.33212" stroke="#1344F0" stroke-width="1.5379"/>
<circle cx="179.199" cy="76.332" r="3.33212" stroke="#1344F0" stroke-width="1.5379"/>
<circle cx="238.664" cy="76.332" r="3.33212" stroke="#1344F0" stroke-width="1.5379"/>
<circle cx="298.13" cy="76.332" r="3.33212" stroke="#1344F0" stroke-width="1.5379"/>
<circle cx="60.6105" cy="86.5847" r="3.33212" stroke="#1344F0" stroke-width="1.5379"/>
<circle cx="120.076" cy="86.5847" r="3.33212" stroke="#1344F0" stroke-width="1.5379"/>
<circle cx="179.541" cy="86.5847" r="3.33212" stroke="#1344F0" stroke-width="1.5379"/>
<circle cx="239.007" cy="86.5847" r="3.33212" stroke="#1344F0" stroke-width="1.5379"/>
<circle cx="298.473" cy="86.5847" r="3.33212" stroke="#1344F0" stroke-width="1.5379"/>
<circle cx="60.7817" cy="96.8373" r="3.33212" stroke="#1344F0" stroke-width="1.5379"/>
<circle cx="120.247" cy="96.8373" r="3.33212" stroke="#1344F0" stroke-width="1.5379"/>
<circle cx="179.713" cy="96.8373" r="3.33212" stroke="#1344F0" stroke-width="1.5379"/>
<circle cx="239.178" cy="96.8373" r="3.33212" stroke="#1344F0" stroke-width="1.5379"/>
<circle cx="298.644" cy="96.8373" r="3.33212" stroke="#1344F0" stroke-width="1.5379"/>
</svg>
