<svg xmlns="http://www.w3.org/2000/svg" width="586" height="586" fill="none"><g clip-path="url(#a)"><circle cx="293" cy="293" r="293" fill="#2D2F2F"/><path fill="#666562" d="M327.173 277.292c13.321-5.126 27.622-13.75 38.165-23.025 28.684-25.222 38.982-60.777 29.584-102.433-1.062-5.044-3.107-12.284-4.414-16.271-1.389-3.905-2.452-7.322-2.452-7.485 0-.163 2.861 2.684 6.294 6.427 29.901 31.649 73.118 49.46 115.8 34.008 13.403-4.8 29.584-14.319 39.718-23.35l4.495-3.987-1.471-4.474c-3.76-11.96-14.221-29.614-24.028-40.679-24.925-28.15-59.329-38.32-100.763-29.94-6.864 1.383-19.695 5.042-25.334 7.157-.654.244 5.911 1.711 8.254-8.866 2.343-10.578-38.115-80.66-65.378-10.578-27.264 70.083 2.369 6.752 2.369 6.752l-7.028-7.402C325.212 36.467 306.825 24.182 288.438 18c-20.186-6.834-42.742-6.429-63.336.975-13.403 4.8-29.338 14.238-39.716 23.35l-4.495 3.987 1.471 4.474c5.23 16.516 19.531 37.914 33.423 50.037 28.031 24.489 67.013 30.104 109.835 15.703 3.923-1.383 7.274-2.442 7.519-2.442.163 0-2.86 3.011-6.783 6.591-20.512 19.363-34.077 42.308-38.409 65.251-.653 3.58-1.226 10.982-1.226 16.596 0 16.435 3.759 31.243 12.013 47.108 6.538 12.855 19.205 29.697 22.147 29.616.735-.081 3.595-.896 6.292-1.953Z" opacity=".19"/><path fill="#EFEFEF" d="M43.04 274.714c-7.452 0-12.636-5.472-12.636-12.96v-.18c0-7.452 5.256-12.96 12.564-12.96h.036c4.356 0 7.848 2.052 10.26 5.472l-4.14 3.096c-1.476-2.304-3.312-3.528-5.832-3.528-4.32 0-7.056 3.24-7.056 7.92v.18c0 4.644 2.736 7.848 6.984 7.848 2.592 0 4.68-1.224 6.048-3.456l4.068 3.132c-2.124 3.312-5.868 5.436-10.26 5.436h-.036Zm13.403-.468v-25.92h5.364v9.468c1.692-1.656 3.996-2.664 6.588-2.664 4.212 0 6.624 2.664 6.624 7.2v11.916h-5.364v-10.764c0-2.592-1.08-3.852-3.384-3.852-2.808 0-4.464 1.62-4.464 4.32v10.296h-5.364Zm32.277.396c-5.868 0-10.152-3.996-10.152-9.396v-.72c0-5.4 4.284-9.396 10.152-9.396h.324c5.868 0 10.152 3.996 10.152 9.396v.72c0 5.4-4.284 9.396-10.152 9.396h-.324Zm.036-3.996h.252c2.664 0 4.608-2.304 4.608-5.58v-.36c0-3.276-1.944-5.58-4.608-5.58h-.252c-2.664 0-4.644 2.304-4.644 5.58v.36c0 3.276 1.98 5.58 4.644 5.58Zm23.413 3.996c-5.868 0-10.152-3.996-10.152-9.396v-.72c0-5.4 4.284-9.396 10.152-9.396h.324c5.868 0 10.152 3.996 10.152 9.396v.72c0 5.4-4.284 9.396-10.152 9.396h-.324Zm.036-3.996h.252c2.664 0 4.608-2.304 4.608-5.58v-.36c0-3.276-1.944-5.58-4.608-5.58h-.252c-2.664 0-4.644 2.304-4.644 5.58v.36c0 3.276 1.98 5.58 4.644 5.58Zm21.406 4.032c-3.492 0-6.624-.9-9.18-2.628l2.52-3.852c1.62 1.332 4.32 2.268 6.552 2.268 1.728 0 2.7-.612 2.7-1.692 0-1.584-2.088-1.44-6.156-2.844-2.448-.756-4.752-1.944-4.752-5.04 0-3.528 2.88-5.796 7.416-5.796 2.736 0 5.652.864 7.704 2.412l-2.52 3.672c-1.332-1.152-3.6-1.908-5.508-1.908-1.62 0-2.34.612-2.34 1.512 0 1.188 1.656 1.548 4.428 2.232 3.132.756 6.768 1.872 6.768 5.796 0 3.528-3.096 5.868-7.632 5.868Zm13.633-21.456c-1.836 0-3.06-1.08-3.06-2.7s1.26-2.772 3.06-2.772c1.872 0 3.168 1.152 3.168 2.772 0 1.62-1.26 2.7-3.168 2.7Zm-2.664 21.024v-18.72h5.364v18.72h-5.364Zm10.195 0v-18.72h4.248c.288.756.576 2.16.576 2.952 1.872-2.232 4.5-3.348 6.984-3.348h.108c4.284 0 6.66 2.664 6.66 7.2v11.916h-5.364v-10.764c0-2.556-1.044-3.852-3.348-3.852h-.144c-2.592 0-4.356 1.944-4.356 4.716v9.9h-5.364Zm22.159-12.096v-.288c0-4.068 3.636-6.732 8.568-6.732h.72c1.224 0 2.34.18 3.348.468.396-1.26.792-2.124 1.188-2.7h4.788l-2.376 4.788c1.08 1.08 1.692 2.52 1.692 4.176v.288c0 3.888-3.672 6.732-8.64 6.732h-.144c-.324 0-.648-.036-.936-.072v1.872c.54 0 .972-.036 1.548-.036h.396c4.968 0 8.712 2.16 8.712 5.4v.396c0 3.24-3.78 5.4-8.892 5.4h-1.26c-5.076 0-8.856-2.16-8.856-5.4v-.504c0-2.088 1.656-3.888 4.104-4.824v-3.204c-2.412-1.152-3.96-3.24-3.96-5.76Zm5.256-.18v.468c0 1.728 1.656 2.916 3.564 2.916h.468c1.908 0 3.6-1.296 3.6-2.916v-.468c0-1.728-1.692-2.952-3.636-2.952h-.396c-1.944 0-3.6 1.188-3.6 2.952Zm-.072 13.86v.324c0 1.08 1.476 1.908 3.6 1.908h1.116c2.196 0 3.744-.864 3.744-1.908v-.324c0-1.08-1.548-1.944-3.744-1.944h-1.116c-2.124 0-3.6.864-3.6 1.944Zm26.708-1.584v-14.508h-2.34v-3.348a15.852 15.852 0 0 1 2.34-.54v-1.008c0-3.996 2.196-6.444 6.012-6.444 1.296 0 3.204.252 4.32.684v4.104c-.9-.432-1.908-.612-2.844-.612-1.656 0-2.412.72-2.412 2.664v.54h5.292v3.96h-5.004v14.508h-5.364Zm19.854.396c-4.176 0-6.516-2.628-6.516-7.092v-12.024h5.364v10.836c0 2.484 1.008 3.78 3.204 3.78h.072c2.592 0 4.284-1.908 4.284-4.86v-9.756h5.364v18.72h-4.248c-.288-.72-.54-2.088-.576-2.916-1.62 2.016-4.068 3.312-6.84 3.312h-.108Zm16.587-.396v-18.72h4.284c.252.72.468 1.908.54 2.7 1.44-1.692 3.6-2.7 6.228-2.7h.468v5.04c-.36-.108-.9-.252-1.404-.252-3.096 0-4.752 1.584-4.752 4.032v9.9h-5.364Zm14.555 0v-18.72h4.248c.288.756.576 2.16.576 2.952 1.872-2.232 4.5-3.348 6.984-3.348h.108c4.284 0 6.66 2.664 6.66 7.2v11.916h-5.364v-10.764c0-2.556-1.044-3.852-3.348-3.852h-.144c-2.592 0-4.356 1.944-4.356 4.716v9.9h-5.364Zm25.797-21.024c-1.836 0-3.06-1.08-3.06-2.7s1.26-2.772 3.06-2.772c1.872 0 3.168 1.152 3.168 2.772 0 1.62-1.26 2.7-3.168 2.7Zm-2.664 21.024v-18.72h5.364v18.72h-5.364Zm16.999.252c-3.852 0-6.192-2.088-6.192-6.156v-8.676h-2.448v-3.564c.648-.216 1.62-.432 2.448-.504v-4.392l5.328-.648v4.968h5.616v4.14h-5.652v7.704c0 1.908.9 2.628 2.52 2.628.936 0 2.52-.252 3.24-.396v4.068c-1.26.54-3.42.828-4.86.828Zm14.402.144c-4.176 0-6.516-2.628-6.516-7.092v-12.024h5.364v10.836c0 2.484 1.008 3.78 3.204 3.78h.072c2.592 0 4.284-1.908 4.284-4.86v-9.756h5.364v18.72h-4.248c-.288-.72-.54-2.088-.576-2.916-1.62 2.016-4.068 3.312-6.84 3.312h-.108Zm16.587-.396v-18.72h4.284c.252.72.468 1.908.54 2.7 1.44-1.692 3.6-2.7 6.228-2.7h.468v5.04c-.36-.108-.9-.252-1.404-.252-3.096 0-4.752 1.584-4.752 4.032v9.9h-5.364Zm23.447.396c-5.832 0-9.9-3.816-9.9-9.396v-.612c0-5.472 4.176-9.468 9.72-9.468h.324c5.292 0 9.108 3.636 9.108 8.532v2.664H349.71c.324 2.448 2.232 3.996 5.004 3.996h.216c2.232 0 4.212-1.008 5.364-2.232l2.628 3.348c-1.8 1.836-5.112 3.168-8.064 3.168h-.468Zm-4.536-11.556h8.712c-.144-2.34-1.8-3.996-4.176-3.996h-.108c-2.232 0-3.96 1.512-4.428 3.996Zm32.26 11.556c-3.816 0-6.516-2.232-6.516-5.58v-.324c0-3.996 3.744-6.084 11.196-6.084h1.404v-.54c0-1.656-1.152-2.772-3.456-2.772h-.144c-1.872 0-4.068.684-6.048 1.8l-2.052-3.708c2.268-1.404 5.328-2.304 8.352-2.304h.324c4.932 0 8.064 2.664 8.064 7.164v7.668c0 1.512.288 2.88.648 4.284h-5.04a8.38 8.38 0 0 1-.468-2.16c-1.44 1.476-3.6 2.556-6.264 2.556Zm1.368-4.068c1.764 0 3.564-.72 4.752-1.98v-2.808h-1.296c-4.212 0-6.228.936-6.228 2.664v.108c0 1.188 1.116 2.016 2.772 2.016Zm14.575 3.672v-18.72h4.248c.288.756.576 2.16.576 2.952 1.872-2.232 4.5-3.348 6.984-3.348h.108c4.284 0 6.66 2.664 6.66 7.2v11.916h-5.364v-10.764c0-2.556-1.044-3.852-3.348-3.852h-.144c-2.592 0-4.356 1.944-4.356 4.716v9.9h-5.364Zm31.016.396c-5.148 0-8.928-3.924-8.928-9.396v-.72c0-5.472 3.78-9.396 8.928-9.396h.216c2.34 0 4.428.828 5.94 2.268v-9.072h5.364v25.92h-4.248c-.252-.612-.432-1.62-.54-2.412-1.584 1.764-3.888 2.808-6.516 2.808h-.216Zm1.26-3.996h.288c2.664 0 4.608-2.304 4.608-5.58v-.36c0-3.276-1.908-5.58-4.608-5.58h-.288c-2.664 0-4.608 2.304-4.608 5.58v.36c0 3.276 1.944 5.58 4.608 5.58Zm32.244 3.996c-5.148 0-8.928-3.924-8.928-9.396v-.72c0-5.472 3.78-9.396 8.928-9.396h.216c2.34 0 4.428.828 5.94 2.268v-9.072h5.364v25.92h-4.248c-.252-.612-.432-1.62-.54-2.412-1.584 1.764-3.888 2.808-6.516 2.808h-.216Zm1.26-3.996h.288c2.664 0 4.608-2.304 4.608-5.58v-.36c0-3.276-1.908-5.58-4.608-5.58h-.288c-2.664 0-4.608 2.304-4.608 5.58v.36c0 3.276 1.944 5.58 4.608 5.58Zm23.971 3.996c-5.832 0-9.9-3.816-9.9-9.396v-.612c0-5.472 4.176-9.468 9.72-9.468h.324c5.292 0 9.108 3.636 9.108 8.532v2.664h-13.932c.324 2.448 2.232 3.996 5.004 3.996h.216c2.232 0 4.212-1.008 5.364-2.232l2.628 3.348c-1.8 1.836-5.112 3.168-8.064 3.168h-.468Zm-4.536-11.556h8.712c-.144-2.34-1.8-3.996-4.176-3.996h-.108c-2.232 0-3.96 1.512-4.428 3.996Zm26.255 11.52c-5.652 0-9.576-3.924-9.576-9.396v-.72c0-5.4 4.068-9.324 9.504-9.324h.288c3.528 0 6.336 1.548 8.136 4.104l-3.816 2.736c-1.044-1.872-2.376-2.736-4.212-2.736h-.072c-2.664 0-4.284 1.98-4.284 5.436v.36c0 3.348 1.8 5.364 4.428 5.364h.18c1.908 0 3.24-1.044 4.212-2.772l3.708 2.916c-1.8 2.556-4.536 4.032-8.172 4.032h-.324Zm20.545.036c-5.868 0-10.152-3.996-10.152-9.396v-.72c0-5.4 4.284-9.396 10.152-9.396h.324c5.868 0 10.152 3.996 10.152 9.396v.72c0 5.4-4.284 9.396-10.152 9.396h-.324Zm.036-3.996h.252c2.664 0 4.608-2.304 4.608-5.58v-.36c0-3.276-1.944-5.58-4.608-5.58h-.252c-2.664 0-4.644 2.304-4.644 5.58v.36c0 3.276 1.98 5.58 4.644 5.58Zm14.269 3.6v-18.72h4.284c.252.72.468 1.908.54 2.7 1.44-1.692 3.6-2.7 6.228-2.7h.468v5.04c-.36-.108-.9-.252-1.404-.252-3.096 0-4.752 1.584-4.752 4.032v9.9h-5.364ZM185.321 307.969c-2.208 0-4.656-.816-6.216-2.448l.936-1.104c1.296 1.392 3.384 2.16 5.376 2.16 2.52 0 4.2-1.224 4.2-3.192 0-2.232-2.256-2.952-4.632-3.696-2.64-.792-5.424-1.704-5.424-4.656 0-2.784 2.424-4.32 5.376-4.32 2.16 0 4.296.816 5.544 2.136l-.936 1.032c-1.128-1.152-2.904-1.752-4.608-1.752-2.352 0-3.912 1.176-3.912 2.856 0 2.04 2.376 2.664 4.896 3.456 2.496.816 5.208 1.824 5.208 4.824 0 3.024-2.64 4.704-5.808 4.704Zm14.281-.072c-3.576 0-6.096-2.568-6.096-6.072v-.336c0-3.696 2.544-6.36 6.096-6.36h.024c3.36 0 5.688 2.376 5.688 5.832v1.128h-10.392v.048c.168 2.592 2.088 4.416 4.776 4.416 1.8 0 3.384-.816 4.224-2.016l1.08.72c-1.248 1.704-3.24 2.64-5.4 2.64Zm-4.632-7.08h9v-.072c-.096-2.544-1.896-4.272-4.44-4.272-2.52 0-4.32 1.752-4.56 4.344Zm13.976 6.936v-17.28h1.344v17.28h-1.344Zm11.046.144c-3.576 0-6.096-2.568-6.096-6.072v-.336c0-3.696 2.544-6.36 6.096-6.36h.024c3.36 0 5.688 2.376 5.688 5.832v1.128h-10.392v.048c.168 2.592 2.088 4.416 4.776 4.416 1.8 0 3.384-.816 4.224-2.016l1.08.72c-1.248 1.704-3.24 2.64-5.4 2.64Zm-4.632-7.08h9v-.072c-.096-2.544-1.896-4.272-4.44-4.272-2.52 0-4.32 1.752-4.56 4.344Zm19.305 7.08c-3.552 0-6.12-2.592-6.12-6.264v-.24c0-3.672 2.568-6.264 6.072-6.264h.096c2.376 0 4.224 1.248 5.208 3.096l-1.128.624c-.816-1.512-2.256-2.424-4.128-2.424h-.048c-2.784 0-4.656 1.992-4.656 4.968v.24c0 2.904 2.04 4.968 4.824 4.968h.048c1.896 0 3.264-.984 4.056-2.352l1.104.672c-1.032 1.8-2.856 2.976-5.208 2.976h-.12Zm12.219-.072c-2.112 0-3.432-.96-3.432-3.264v-8.016H241.7v-.936c.456-.144 1.176-.264 1.752-.312v-2.904l1.344-.192v3.072h4.392v1.272h-4.392v7.8c0 1.56.816 2.184 2.256 2.184.672 0 1.848-.12 2.4-.312v1.224c-.576.24-1.728.384-2.568.384Zm6.281-14.808c-.576 0-.984-.408-.984-.96s.408-.984.984-.984c.528 0 .96.432.96.984s-.432.96-.96.96Zm-.672 14.736v-12.48h1.344v12.48h-1.344Zm5.742 0v-12.48h1.032c.144.504.264 1.32.288 2.16.984-1.44 2.688-2.328 4.728-2.328h.072c3.024 0 4.584 1.656 4.584 4.656v7.992h-1.344v-7.776c0-2.256-1.104-3.528-3.432-3.528h-.096c-2.664 0-4.488 1.632-4.488 4.152v7.152h-1.344Zm14.019-8.088v-.192c0-2.52 2.184-4.344 5.184-4.344h.096c1.296 0 2.424.336 3.288.912.288-.696.6-1.32 1.08-1.968h1.344l-1.488 2.76c.624.72.984 1.632.984 2.64v.192c0 2.52-2.208 4.32-5.208 4.32h-.096a5.786 5.786 0 0 1-1.608-.216v1.92a10.236 10.236 0 0 1 1.776-.144h.144c3.216 0 5.544 1.344 5.544 3.48v.144c0 2.112-2.328 3.456-5.544 3.456h-.144c-3.24 0-5.544-1.32-5.544-3.432v-.168c0-1.392 1.008-2.448 2.472-3v-2.736c-1.416-.744-2.28-2.04-2.28-3.624Zm1.392-.168v.144c0 1.8 1.608 3.072 3.792 3.072h.12c2.184 0 3.792-1.296 3.792-3.072v-.144c0-1.776-1.608-3.096-3.84-3.096h-.048c-2.208 0-3.816 1.296-3.816 3.096Zm-.192 9.552v.096c0 1.392 1.656 2.232 4.176 2.232h.096c2.496 0 4.176-.864 4.176-2.232v-.096c0-1.392-1.68-2.256-4.176-2.256h-.096c-2.496 0-4.176.864-4.176 2.256Zm20.305-16.032c-.576 0-.984-.408-.984-.96s.408-.984.984-.984c.528 0 .96.432.96.984s-.432.96-.96.96Zm-.672 14.736v-12.48h1.344v12.48h-1.344Zm9.414.072c-2.112 0-3.432-.96-3.432-3.264v-8.016h-1.752v-.936c.456-.144 1.176-.264 1.752-.312v-2.904l1.344-.192v3.072h4.392v1.272h-4.392v7.8c0 1.56.816 2.184 2.256 2.184.672 0 1.848-.12 2.4-.312v1.224c-.576.24-1.728.384-2.568.384Zm10.609.072c-3.576 0-6.096-2.568-6.096-6.072v-.336c0-3.696 2.544-6.36 6.096-6.36h.024c3.36 0 5.688 2.376 5.688 5.832v1.128H308.43v.048c.168 2.592 2.088 4.416 4.776 4.416 1.8 0 3.384-.816 4.224-2.016l1.08.72c-1.248 1.704-3.24 2.64-5.4 2.64Zm-4.632-7.08h9v-.072c-.096-2.544-1.896-4.272-4.44-4.272-2.52 0-4.32 1.752-4.56 4.344Zm13.976 6.936v-12.48h1.032c.12.384.216 1.152.264 1.92.888-1.296 2.328-2.088 4.032-2.088h.048c1.968 0 3.24.864 3.744 2.52.84-1.56 2.4-2.52 4.32-2.52h.048c2.64 0 4.008 1.584 4.008 4.488v8.16h-1.344v-7.968c0-2.16-.96-3.336-2.928-3.336h-.048c-2.208 0-3.768 1.464-3.768 3.912v7.392h-1.344v-7.968c0-2.16-.96-3.336-2.952-3.336h-.048c-2.208 0-3.72 1.464-3.72 3.912v7.392h-1.344Zm25.76.168c-1.968 0-4.032-.696-5.328-1.872l.792-1.008c1.344 1.032 2.904 1.584 4.584 1.584 2.064 0 3.36-.888 3.36-2.208 0-1.656-1.968-2.064-4.008-2.544-2.328-.528-4.248-1.2-4.248-3.336 0-2.064 1.8-3.432 4.416-3.432 1.656 0 3.456.552 4.704 1.488l-.672 1.104c-1.2-.816-2.736-1.272-4.104-1.272-1.824 0-2.952.816-2.952 1.992 0 1.056.888 1.632 3.552 2.256 2.616.6 4.728 1.296 4.728 3.6 0 2.208-1.968 3.648-4.824 3.648Zm18.342-.096c-2.112 0-3.432-.96-3.432-3.264v-8.016h-1.752v-.936c.456-.144 1.176-.264 1.752-.312v-2.904l1.344-.192v3.072h4.392v1.272h-4.392v7.8c0 1.56.816 2.184 2.256 2.184.672 0 1.848-.12 2.4-.312v1.224c-.576.24-1.728.384-2.568.384Zm5.609-.072v-17.28h1.344v7.008c1.008-1.464 2.76-2.376 4.872-2.376 2.904 0 4.488 1.656 4.488 4.656v7.992h-1.344v-7.776c0-2.328-1.2-3.528-3.48-3.528-2.712 0-4.536 1.68-4.536 4.152v7.152h-1.344Zm18.339.168c-2.616 0-4.416-1.536-4.416-3.768v-.048c0-2.616 2.544-3.984 7.488-3.984h1.56v-1.056c0-1.632-1.272-2.616-3.312-2.616h-.024c-1.416 0-3.048.48-4.368 1.368l-.672-1.104c1.632-1.032 3.312-1.632 5.088-1.632h.048c2.808 0 4.584 1.512 4.584 3.912v6.576c0 .672.192 1.584.432 2.184h-1.368c-.168-.408-.312-1.08-.384-1.656-1.344 1.2-2.976 1.824-4.656 1.824Zm.024-1.344c1.8 0 3.432-.768 4.608-2.016v-3.192h-1.248c-4.392 0-6.432.888-6.432 2.76v.048c0 1.416 1.272 2.4 3.072 2.4Zm13.926 1.248c-2.112 0-3.432-.96-3.432-3.264v-8.016h-1.752v-.936c.456-.144 1.176-.264 1.752-.312v-2.904l1.344-.192v3.072h4.392v1.272h-4.392v7.8c0 1.56.816 2.184 2.256 2.184.672 0 1.848-.12 2.4-.312v1.224c-.576.24-1.728.384-2.568.384Zm-248.488 28.928v-12.48h1.032c.12.384.216 1.152.264 1.92.888-1.296 2.328-2.088 4.032-2.088h.048c1.968 0 3.24.864 3.744 2.52.84-1.56 2.4-2.52 4.32-2.52h.048c2.64 0 4.008 1.584 4.008 4.488v8.16h-1.344v-7.968c0-2.16-.96-3.336-2.928-3.336h-.048c-2.208 0-3.768 1.464-3.768 3.912v7.392h-1.344v-7.968c0-2.16-.96-3.336-2.952-3.336h-.048c-2.208 0-3.72 1.464-3.72 3.912v7.392h-1.344Zm25.135.168c-2.616 0-4.416-1.536-4.416-3.768v-.048c0-2.616 2.544-3.984 7.488-3.984h1.56v-1.056c0-1.632-1.272-2.616-3.312-2.616h-.024c-1.416 0-3.048.48-4.368 1.368l-.672-1.104c1.632-1.032 3.312-1.632 5.088-1.632h.048c2.808 0 4.584 1.512 4.584 3.912v6.576c0 .672.192 1.584.432 2.184h-1.368c-.168-.408-.312-1.08-.384-1.656-1.344 1.2-2.976 1.824-4.656 1.824Zm.024-1.344c1.8 0 3.432-.768 4.608-2.016v-3.192h-1.248c-4.392 0-6.432.888-6.432 2.76v.048c0 1.416 1.272 2.4 3.072 2.4Zm13.927 1.248c-2.112 0-3.432-.96-3.432-3.264v-8.016h-1.752v-.936c.456-.144 1.176-.264 1.752-.312v-2.904l1.344-.192v3.072h4.392v1.272h-4.392v7.8c0 1.56.816 2.184 2.256 2.184.672 0 1.848-.12 2.4-.312v1.224c-.576.24-1.728.384-2.568.384Zm10.632.072c-3.552 0-6.12-2.592-6.12-6.264v-.24c0-3.672 2.568-6.264 6.072-6.264h.096c2.376 0 4.224 1.248 5.208 3.096l-1.128.624c-.816-1.512-2.256-2.424-4.128-2.424h-.048c-2.784 0-4.656 1.992-4.656 4.968v.24c0 2.904 2.04 4.968 4.824 4.968h.048c1.896 0 3.264-.984 4.056-2.352l1.104.672c-1.032 1.8-2.856 2.976-5.208 2.976h-.12Zm8.547-.144v-17.28h1.344v7.008c1.008-1.464 2.76-2.376 4.872-2.376 2.904 0 4.488 1.656 4.488 4.656v7.992h-1.344v-7.776c0-2.328-1.2-3.528-3.48-3.528-2.712 0-4.536 1.68-4.536 4.152v7.152h-1.344Zm22.667 4.704c-.552 0-1.296-.12-1.848-.432v-1.272c.576.264 1.104.408 1.632.408 1.32 0 2.232-1.008 3-2.832l-5.688-13.056h1.536l4.752 11.064h.168l4.176-11.064h1.464l-4.968 13.152c-.936 2.52-2.112 4.032-4.224 4.032Zm16.623-4.56c-3.6 0-6.168-2.616-6.168-6.288v-.192c0-3.672 2.568-6.288 6.168-6.288h.096c3.624 0 6.168 2.616 6.168 6.288v.192c0 3.672-2.544 6.288-6.168 6.288h-.096Zm.024-1.32h.048c2.808 0 4.8-2.064 4.8-4.992v-.144c0-2.928-1.992-4.992-4.8-4.992h-.048c-2.808 0-4.776 2.064-4.776 4.992v.144c0 2.928 1.968 4.992 4.776 4.992Zm14.106 1.344c-2.976 0-4.488-1.656-4.488-4.656v-7.992h1.344v7.776c0 2.256 1.056 3.528 3.336 3.528h.072c2.592 0 4.44-1.632 4.44-4.152v-7.152h1.344v12.48h-1.056c-.144-.504-.24-1.296-.288-2.136-.96 1.416-2.64 2.304-4.656 2.304h-.048Zm10.448-.168v-12.48h1.032c.144.528.264 1.344.288 2.136.912-1.32 2.472-2.136 4.32-2.136h.264v1.392a3.58 3.58 0 0 0-.504-.048c-2.424 0-4.056 1.584-4.056 4.152v6.984h-1.344Zm15.609 4.8v-17.28h1.032c.144.552.264 1.56.312 2.424 1.008-1.584 2.76-2.568 4.872-2.568h.096c3.504 0 6.048 2.592 6.048 6.288v.192c0 3.696-2.544 6.288-6.048 6.288h-.096c-2.112 0-3.864-.984-4.872-2.568v7.224h-1.344Zm6.072-6h.12c2.832 0 4.752-1.992 4.752-4.968v-.144c0-2.976-1.92-4.968-4.752-4.968h-.12c-2.808 0-4.728 1.992-4.728 4.968v.144c0 2.976 1.92 4.968 4.728 4.968Zm9.912 1.2v-12.48h1.032c.144.528.264 1.344.288 2.136.912-1.32 2.472-2.136 4.32-2.136h.264v1.392a3.58 3.58 0 0 0-.504-.048c-2.424 0-4.056 1.584-4.056 4.152v6.984h-1.344Zm14.257.144c-3.576 0-6.096-2.568-6.096-6.072v-.336c0-3.696 2.544-6.36 6.096-6.36h.024c3.36 0 5.688 2.376 5.688 5.832v1.128h-10.392v.048c.168 2.592 2.088 4.416 4.776 4.416 1.8 0 3.384-.816 4.224-2.016l1.08.72c-1.248 1.704-3.24 2.64-5.4 2.64Zm-4.632-7.08h9v-.072c-.096-2.544-1.896-4.272-4.44-4.272-2.52 0-4.32 1.752-4.56 4.344Zm13.881 6.936v-11.208h-1.488v-.912a7.102 7.102 0 0 1 1.488-.312v-1.056c0-2.352 1.368-3.768 3.528-3.768.792 0 1.704.168 2.28.48v1.248c-.6-.288-1.32-.432-2.064-.432-1.536 0-2.4.816-2.4 2.544v.936h4.2v1.272h-4.2v11.208h-1.344Zm12.876.144c-3.576 0-6.096-2.568-6.096-6.072v-.336c0-3.696 2.544-6.36 6.096-6.36h.024c3.36 0 5.688 2.376 5.688 5.832v1.128h-10.392v.048c.168 2.592 2.088 4.416 4.776 4.416 1.8 0 3.384-.816 4.224-2.016l1.08.72c-1.248 1.704-3.24 2.64-5.4 2.64Zm-4.632-7.08h9v-.072c-.096-2.544-1.896-4.272-4.44-4.272-2.52 0-4.32 1.752-4.56 4.344Zm13.977 6.936v-12.48h1.032c.144.528.264 1.344.288 2.136.912-1.32 2.472-2.136 4.32-2.136h.264v1.392a3.58 3.58 0 0 0-.504-.048c-2.424 0-4.056 1.584-4.056 4.152v6.984h-1.344Zm14.257.144c-3.576 0-6.096-2.568-6.096-6.072v-.336c0-3.696 2.544-6.36 6.096-6.36h.024c3.36 0 5.688 2.376 5.688 5.832v1.128h-10.392v.048c.168 2.592 2.088 4.416 4.776 4.416 1.8 0 3.384-.816 4.224-2.016l1.08.72c-1.248 1.704-3.24 2.64-5.4 2.64Zm-4.632-7.08h9v-.072c-.096-2.544-1.896-4.272-4.44-4.272-2.52 0-4.32 1.752-4.56 4.344Zm13.976 6.936v-12.48h1.032c.144.504.264 1.32.288 2.16.984-1.44 2.688-2.328 4.728-2.328h.072c3.024 0 4.584 1.656 4.584 4.656v7.992h-1.344v-7.776c0-2.256-1.104-3.528-3.432-3.528h-.096c-2.664 0-4.488 1.632-4.488 4.152v7.152h-1.344Zm20.211.144c-3.552 0-6.12-2.592-6.12-6.264v-.24c0-3.672 2.568-6.264 6.072-6.264h.096c2.376 0 4.224 1.248 5.208 3.096l-1.128.624c-.816-1.512-2.256-2.424-4.128-2.424h-.048c-2.784 0-4.656 1.992-4.656 4.968v.24c0 2.904 2.04 4.968 4.824 4.968h.048c1.896 0 3.264-.984 4.056-2.352l1.104.672c-1.032 1.8-2.856 2.976-5.208 2.976h-.12Zm13.781 0c-3.576 0-6.096-2.568-6.096-6.072v-.336c0-3.696 2.544-6.36 6.096-6.36h.024c3.36 0 5.688 2.376 5.688 5.832v1.128h-10.392v.048c.168 2.592 2.088 4.416 4.776 4.416 1.8 0 3.384-.816 4.224-2.016l1.08.72c-1.248 1.704-3.24 2.64-5.4 2.64Zm-4.632-7.08h9v-.072c-.096-2.544-1.896-4.272-4.44-4.272-2.52 0-4.32 1.752-4.56 4.344Zm18.056 7.104c-1.968 0-4.032-.696-5.328-1.872l.792-1.008c1.344 1.032 2.904 1.584 4.584 1.584 2.064 0 3.36-.888 3.36-2.208 0-1.656-1.968-2.064-4.008-2.544-2.328-.528-4.248-1.2-4.248-3.336 0-2.064 1.8-3.432 4.416-3.432 1.656 0 3.456.552 4.704 1.488l-.672 1.104c-1.2-.816-2.736-1.272-4.104-1.272-1.824 0-2.952.816-2.952 1.992 0 1.056.888 1.632 3.552 2.256 2.616.6 4.728 1.296 4.728 3.6 0 2.208-1.968 3.648-4.824 3.648Z"/></g><defs><clipPath id="a"><path fill="#fff" d="M0 0h586v586H0z"/></clipPath></defs></svg>