<svg width="96" height="97" viewBox="0 0 96 97" fill="none" xmlns="http://www.w3.org/2000/svg">
<path d="M49.8206 40.1599L51.0401 38.5613L50.4999 38.1493H49.8206V40.1599ZM61.5088 49.0766L60.2892 50.6752L61.0873 51.284L62.0536 51.0121L61.5088 49.0766ZM80.0325 45.3393C80.5756 44.3707 80.2307 43.1453 79.2621 42.6022L63.478 33.7524C62.5095 33.2094 61.284 33.5543 60.741 34.5229C60.1979 35.4915 60.5428 36.7169 61.5114 37.26L75.5417 45.1265L67.6752 59.1567C67.1321 60.1253 67.4771 61.3508 68.4456 61.8938C69.4142 62.4369 70.6397 62.0919 71.1827 61.1234L80.0325 45.3393ZM37.6242 40.1599V38.1493H36.3399L35.7999 39.3146L37.6242 40.1599ZM48.601 41.7585L60.2892 50.6752L62.7283 47.4781L51.0401 38.5613L48.601 41.7585ZM62.0536 51.0121L78.8236 46.2914L77.734 42.4206L60.9639 47.1412L62.0536 51.0121ZM33.8585 53.069L39.4485 41.0052L35.7999 39.3146L30.2099 51.3784L33.8585 53.069ZM37.6242 42.1705H49.8206V38.1493H37.6242V42.1705Z" fill="#4DDEC4"/>
<path d="M18.6637 11.2435L28.5601 15.3386L29.2044 15.6052L29.8939 15.5018L69.1707 9.61024L88.3321 21.9283V71.6683L68.2484 80.1481L47.6273 71.0364L46.7453 70.6468L45.8291 70.9469L19.4468 79.5894L15.5418 56.5936L24.7642 36.6927L25.1447 35.8715L24.9144 34.9963L18.6637 11.2435Z" stroke="#4DDEC4" stroke-width="5.02659"/>
</svg>
