<svg width="634" height="626" viewBox="0 0 634 626" fill="none" xmlns="http://www.w3.org/2000/svg">
<path d="M13.0474 11.0658C28.2837 3.16545 38.6235 20.9341 55.7818 21.322C74.7297 21.7505 84.2644 11.0302 103.217 11.0658C122.007 11.101 131.451 22.0803 150.225 21.322C166.08 20.6817 173.75 12.6291 189.541 11.0658C210.595 8.98123 222.26 18.2009 243.386 17.0486C257.577 16.2746 265.081 10.5252 279.283 11.0658C294.817 11.657 302.318 23.2406 317.744 21.322C330.561 19.728 335.693 3.37357 347.658 7.21967C359.624 11.0658 369.066 15.8974 383.555 17.0486C400.354 18.3833 409.992 6.78101 426.29 11.0658C434.952 13.343 446.802 21.322 446.802 21.322C446.802 21.322 477.115 8.8863 497.656 7.21967C526.789 4.85603 541.933 21.6628 571.16 21.322C594.535 21.0495 630.133 11.0658 630.133 11.0658" stroke="#4DDEC4" stroke-width="12.1295"/>
<path d="M12.7539 613.472C27.9902 621.373 38.33 603.604 55.4884 603.216C74.4362 602.788 83.971 613.508 102.924 613.472C121.713 613.437 131.157 602.458 149.932 603.216C165.786 603.856 173.457 611.909 189.247 613.472C210.302 615.557 221.967 606.337 243.093 607.49C257.284 608.264 264.788 614.013 278.99 613.472C294.523 612.881 302.025 601.298 317.451 603.216C330.267 604.81 335.399 621.165 347.365 617.318C359.331 613.472 368.773 608.641 383.262 607.49C400.061 606.155 409.699 617.757 425.996 613.472C434.658 611.195 446.509 603.216 446.509 603.216C446.509 603.216 476.821 615.652 497.363 617.318C526.496 619.682 541.64 602.875 570.866 603.216C594.241 603.489 629.84 613.472 629.84 613.472" stroke="#1344F0" stroke-width="12.1295"/>
<path d="M623.708 14.7224C630.139 29.5968 615.675 39.691 615.359 56.4419C615.01 74.9398 623.737 84.2481 623.708 102.751C623.679 121.094 614.742 130.314 615.359 148.642C615.88 164.12 622.435 171.609 623.708 187.024C625.405 207.579 617.9 218.967 618.838 239.591C619.468 253.445 624.148 260.771 623.708 274.635C623.227 289.8 613.797 297.123 615.359 312.183C616.656 324.695 629.97 329.705 626.839 341.386C623.708 353.068 619.775 362.286 618.838 376.431C617.751 392.831 627.196 402.24 623.708 418.151C621.854 426.607 615.359 438.176 615.359 438.176C615.359 438.176 625.482 467.768 626.839 487.822C628.763 516.263 615.082 531.048 615.359 559.58C615.581 582.399 623.708 617.153 623.708 617.153" stroke="#4DDEC4" stroke-width="12.1295"/>
<path d="M13.7918 617.153C19.151 602.278 7.0975 592.184 6.83433 575.433C6.5437 556.936 13.8159 547.627 13.7918 529.125C13.7678 510.781 6.31994 501.562 6.83432 483.233C7.26871 467.755 12.7312 460.266 13.7918 444.851C15.2058 424.297 8.95156 412.909 9.73325 392.285C10.2583 378.431 14.1585 371.105 13.7918 357.24C13.3907 342.075 5.53284 334.752 6.83431 319.693C7.91563 307.18 19.0098 302.17 16.4008 290.489C13.7918 278.807 10.5142 269.589 9.73324 255.444C8.8278 239.045 16.6984 229.636 13.7917 213.725C12.247 205.269 6.83431 193.699 6.83431 193.699C6.83431 193.699 15.2702 164.107 16.4008 144.053C18.0042 115.612 6.60316 100.828 6.8343 72.2954C7.01916 49.4758 13.7917 14.7224 13.7917 14.7224" stroke="#4DDEC4" stroke-width="12.1295"/>
</svg>
