<svg width="51" height="50" viewBox="0 0 51 50" fill="none" xmlns="http://www.w3.org/2000/svg">
<rect x="0.322266" width="50" height="50" rx="10.9375" fill="#1344F0"/>
<path d="M30.7563 17.4282C32.9182 17.4282 34.9915 18.3443 36.5201 19.9749C38.0488 21.6054 38.9076 23.817 38.9076 26.123V36.2668H33.4734V26.123C33.4734 25.3543 33.1871 24.6171 32.6776 24.0736C32.168 23.5301 31.4769 23.2247 30.7563 23.2247C30.0357 23.2247 29.3446 23.5301 28.835 24.0736C28.3255 24.6171 28.0392 25.3543 28.0392 26.123V36.2668H22.605V26.123C22.605 23.817 23.4638 21.6054 24.9924 19.9749C26.5211 18.3443 28.5944 17.4282 30.7563 17.4282Z" stroke="#F2F6FF" stroke-width="2.71711" stroke-linecap="round" stroke-linejoin="round"/>
<path d="M17.171 18.877H11.7368V36.2664H17.171V18.877Z" stroke="#F2F6FF" stroke-width="2.71711" stroke-linecap="round" stroke-linejoin="round"/>
<path d="M14.4539 14.5299C15.9545 14.5299 17.171 13.2323 17.171 11.6316C17.171 10.031 15.9545 8.7334 14.4539 8.7334C12.9533 8.7334 11.7368 10.031 11.7368 11.6316C11.7368 13.2323 12.9533 14.5299 14.4539 14.5299Z" stroke="#F2F6FF" stroke-width="2.71711" stroke-linecap="round" stroke-linejoin="round"/>
</svg>
