<svg xmlns="http://www.w3.org/2000/svg" width="562" height="562" fill="none"><circle cx="281" cy="281" r="281" fill="#666562"/><path fill="#EFEFEF" d="M94.464 257v-22.4h9.024c5.056 0 8.096 2.656 8.096 7.008v.32c0 2.752-1.472 5.024-3.872 6.08l5.344 8.992h-5.792l-4.288-7.872h-3.52V257h-4.992Zm4.832-11.648h3.456c2.592 0 3.872-1.312 3.872-3.264v-.256c0-1.952-1.312-3.072-3.84-3.072h-3.488v6.592Zm23.476 12c-5.216 0-9.024-3.552-9.024-8.352v-.64c0-4.8 3.808-8.352 9.024-8.352h.288c5.216 0 9.024 3.552 9.024 8.352v.64c0 4.8-3.808 8.352-9.024 8.352h-.288Zm.032-3.552h.224c2.368 0 4.096-2.048 4.096-4.96v-.32c0-2.912-1.728-4.96-4.096-4.96h-.224c-2.368 0-4.128 2.048-4.128 4.96v.32c0 2.912 1.76 4.96 4.128 4.96Zm20.812 3.552c-5.216 0-9.024-3.552-9.024-8.352v-.64c0-4.8 3.808-8.352 9.024-8.352h.288c5.216 0 9.024 3.552 9.024 8.352v.64c0 4.8-3.808 8.352-9.024 8.352h-.288Zm.032-3.552h.224c2.368 0 4.096-2.048 4.096-4.96v-.32c0-2.912-1.728-4.96-4.096-4.96h-.224c-2.368 0-4.128 2.048-4.128 4.96v.32c0 2.912 1.76 4.96 4.128 4.96Zm12.684 3.2v-16.64h3.776c.224.608.448 1.696.48 2.4 1.312-1.664 3.232-2.752 5.376-2.752h.032c2.368 0 4.032 1.056 4.864 2.912 1.312-1.792 3.296-2.944 5.536-2.944h.032c3.52 0 5.472 2.336 5.472 6.304V257h-4.768v-9.856c0-2.368-.8-3.136-2.496-3.168h-.032c-1.824.064-3.104 1.28-3.104 3.904V257h-4.768v-9.856c0-2.368-.8-3.104-2.528-3.136h-.032c-1.792.032-3.072 1.28-3.072 3.872V257h-4.768Zm42.579.352c-3.392 0-5.793-1.984-5.793-4.96v-.288c0-3.552 3.329-5.408 9.953-5.408h1.248v-.48c0-1.472-1.024-2.464-3.072-2.464h-.128c-1.664 0-3.616.608-5.376 1.6l-1.824-3.296c2.016-1.248 4.736-2.048 7.424-2.048h.288c4.384 0 7.168 2.368 7.168 6.368v6.816c0 1.344.256 2.56.576 3.808h-4.48a7.45 7.45 0 0 1-.416-1.92c-1.28 1.312-3.2 2.272-5.568 2.272Zm1.216-3.616c1.568 0 3.168-.64 4.224-1.76v-2.496h-1.152c-3.744 0-5.536.832-5.536 2.368v.096c0 1.056.992 1.792 2.464 1.792ZM213.082 257v-16.64h3.776c.256.672.512 1.92.512 2.624 1.664-1.984 4-2.976 6.208-2.976h.096c3.808 0 5.92 2.368 5.92 6.4V257h-4.768v-9.568c0-2.272-.928-3.424-2.976-3.424h-.128c-2.304 0-3.872 1.728-3.872 4.192v8.8h-4.768Zm27.57.352c-4.576 0-7.936-3.488-7.936-8.352v-.64c0-4.864 3.36-8.352 7.936-8.352h.192c2.08 0 3.936.736 5.28 2.016v-8.064h4.768V257h-3.776c-.224-.544-.384-1.44-.48-2.144-1.408 1.568-3.456 2.496-5.792 2.496h-.192Zm1.12-3.552h.256c2.368 0 4.096-2.048 4.096-4.96v-.32c0-2.912-1.696-4.96-4.096-4.96h-.256c-2.368 0-4.096 2.048-4.096 4.96v.32c0 2.912 1.728 4.96 4.096 4.96Zm28.309 3.584c-3.104 0-5.888-.8-8.16-2.336l2.24-3.424c1.44 1.184 3.84 2.016 5.824 2.016 1.536 0 2.4-.544 2.4-1.504 0-1.408-1.856-1.28-5.472-2.528-2.176-.672-4.224-1.728-4.224-4.48 0-3.136 2.56-5.152 6.592-5.152 2.432 0 5.024.768 6.848 2.144l-2.24 3.264c-1.184-1.024-3.2-1.696-4.896-1.696-1.44 0-2.08.544-2.08 1.344 0 1.056 1.472 1.376 3.936 1.984 2.784.672 6.016 1.664 6.016 5.152 0 3.136-2.752 5.216-6.784 5.216Zm9.783 6.016v-23.04h3.776c.192.544.384 1.44.448 2.112 1.408-1.536 3.456-2.464 5.792-2.464h.192c4.576 0 7.936 3.52 7.936 8.352v.64c0 4.832-3.36 8.352-7.936 8.352h-.192c-2.08 0-3.904-.736-5.248-1.984v8.032h-4.768Zm8.832-9.6h.288c2.368 0 4.064-2.048 4.064-4.96v-.32c0-2.912-1.696-4.96-4.064-4.96h-.288c-2.368 0-4.064 2.048-4.064 4.96v.32c0 2.912 1.696 4.96 4.064 4.96Zm17.308 3.552c-3.392 0-5.792-1.984-5.792-4.96v-.288c0-3.552 3.328-5.408 9.952-5.408h1.248v-.48c0-1.472-1.024-2.464-3.072-2.464h-.128c-1.664 0-3.616.608-5.376 1.6l-1.824-3.296c2.016-1.248 4.736-2.048 7.424-2.048h.288c4.384 0 7.168 2.368 7.168 6.368v6.816c0 1.344.256 2.56.576 3.808h-4.48a7.45 7.45 0 0 1-.416-1.92c-1.28 1.312-3.2 2.272-5.568 2.272Zm1.216-3.616c1.568 0 3.168-.64 4.224-1.76v-2.496h-1.152c-3.744 0-5.536.832-5.536 2.368v.096c0 1.056.992 1.792 2.464 1.792Zm20.571 3.584c-5.024 0-8.512-3.488-8.512-8.352v-.64c0-4.8 3.616-8.288 8.448-8.288h.256c3.136 0 5.632 1.376 7.232 3.648l-3.392 2.432c-.928-1.664-2.112-2.432-3.744-2.432h-.064c-2.368 0-3.808 1.76-3.808 4.832v.32c0 2.976 1.6 4.768 3.936 4.768h.16c1.696 0 2.88-.928 3.744-2.464l3.296 2.592c-1.6 2.272-4.032 3.584-7.264 3.584h-.288Zm18.038.032c-5.184 0-8.8-3.392-8.8-8.352v-.544c0-4.864 3.712-8.416 8.64-8.416h.288c4.704 0 8.096 3.232 8.096 7.584v2.368h-12.384c.288 2.176 1.984 3.552 4.448 3.552h.192c1.984 0 3.744-.896 4.768-1.984l2.336 2.976c-1.6 1.632-4.544 2.816-7.168 2.816h-.416Zm-4.032-10.272h7.744c-.128-2.08-1.6-3.552-3.712-3.552h-.096c-1.984 0-3.52 1.344-3.936 3.552Zm30.98 10.272c-4.576 0-7.936-3.488-7.936-8.352v-.64c0-4.864 3.36-8.352 7.936-8.352h.192c2.08 0 3.936.736 5.28 2.016v-8.064h4.768V257h-3.776c-.224-.544-.384-1.44-.48-2.144-1.408 1.568-3.456 2.496-5.792 2.496h-.192Zm1.12-3.552h.256c2.368 0 4.096-2.048 4.096-4.96v-.32c0-2.912-1.696-4.96-4.096-4.96h-.256c-2.368 0-4.096 2.048-4.096 4.96v.32c0 2.912 1.728 4.96 4.096 4.96Zm21.307 3.552c-5.184 0-8.8-3.392-8.8-8.352v-.544c0-4.864 3.712-8.416 8.64-8.416h.288c4.704 0 8.096 3.232 8.096 7.584v2.368h-12.384c.288 2.176 1.984 3.552 4.448 3.552h.192c1.984 0 3.744-.896 4.768-1.984l2.336 2.976c-1.6 1.632-4.544 2.816-7.168 2.816h-.416Zm-4.032-10.272h7.744c-.128-2.08-1.6-3.552-3.712-3.552h-.096c-1.984 0-3.52 1.344-3.936 3.552Zm22.378 10.304c-3.104 0-5.888-.8-8.16-2.336l2.24-3.424c1.44 1.184 3.84 2.016 5.824 2.016 1.536 0 2.4-.544 2.4-1.504 0-1.408-1.856-1.28-5.472-2.528-2.176-.672-4.224-1.728-4.224-4.48 0-3.136 2.56-5.152 6.592-5.152 2.432 0 5.024.768 6.848 2.144l-2.24 3.264c-1.184-1.024-3.2-1.696-4.896-1.696-1.44 0-2.08.544-2.08 1.344 0 1.056 1.472 1.376 3.936 1.984 2.784.672 6.016 1.664 6.016 5.152 0 3.136-2.752 5.216-6.784 5.216Zm12.118-19.072c-1.632 0-2.72-.96-2.72-2.4s1.12-2.464 2.72-2.464c1.664 0 2.816 1.024 2.816 2.464s-1.12 2.4-2.816 2.4ZM423.3 257v-16.64h4.768V257H423.3Zm8.103-10.752v-.256c0-3.616 3.232-5.984 7.616-5.984h.64c1.088 0 2.08.16 2.976.416.352-1.12.704-1.888 1.056-2.4h4.256l-2.112 4.256c.96.96 1.504 2.24 1.504 3.712v.256c0 3.456-3.264 5.984-7.68 5.984h-.128c-.288 0-.576-.032-.832-.064v1.664c.48 0 .864-.032 1.376-.032h.352c4.416 0 7.744 1.92 7.744 4.8v.352c0 2.88-3.36 4.8-7.904 4.8h-1.12c-4.512 0-7.872-1.92-7.872-4.8v-.448c0-1.856 1.472-3.456 3.648-4.288v-2.848c-2.144-1.024-3.52-2.88-3.52-5.12Zm4.672-.16v.416c0 1.536 1.472 2.592 3.168 2.592h.416c1.696 0 3.2-1.152 3.2-2.592v-.416c0-1.536-1.504-2.624-3.232-2.624h-.352c-1.728 0-3.2 1.056-3.2 2.624Zm-.064 12.32v.288c0 .96 1.312 1.696 3.2 1.696h.992c1.952 0 3.328-.768 3.328-1.696v-.288c0-.96-1.376-1.728-3.328-1.728h-.992c-1.888 0-3.2.768-3.2 1.728ZM450.707 257v-16.64h3.776c.256.672.512 1.92.512 2.624 1.664-1.984 4-2.976 6.208-2.976h.096c3.808 0 5.92 2.368 5.92 6.4V257h-4.768v-9.568c0-2.272-.928-3.424-2.976-3.424h-.128c-2.304 0-3.872 1.728-3.872 4.192v8.8h-4.768ZM85.19 298v-16.8h5.113c4.944 0 8.352 3.336 8.352 7.968v.456c0 4.896-3.408 8.376-8.352 8.376H85.19Zm1.44-1.368h3.673c4.176 0 6.816-2.88 6.816-7.056v-.432c0-3.888-2.664-6.576-6.816-6.576H86.63v14.064Zm20.71 1.512c-3.576 0-6.096-2.568-6.096-6.072v-.336c0-3.696 2.544-6.36 6.096-6.36h.024c3.36 0 5.688 2.376 5.688 5.832v1.128H102.66v.048c.168 2.592 2.088 4.416 4.776 4.416 1.8 0 3.384-.816 4.224-2.016l1.08.72c-1.248 1.704-3.24 2.64-5.4 2.64Zm-4.632-7.08h9v-.072c-.096-2.544-1.896-4.272-4.44-4.272-2.52 0-4.32 1.752-4.56 4.344Zm19.305 7.08c-3.552 0-6.12-2.592-6.12-6.264v-.24c0-3.672 2.568-6.264 6.072-6.264h.096c2.376 0 4.224 1.248 5.208 3.096l-1.128.624c-.816-1.512-2.256-2.424-4.128-2.424h-.048c-2.784 0-4.656 1.992-4.656 4.968v.24c0 2.904 2.04 4.968 4.824 4.968h.048c1.896 0 3.264-.984 4.056-2.352l1.104.672c-1.032 1.8-2.856 2.976-5.208 2.976h-.12Zm13.852 0c-3.6 0-6.168-2.616-6.168-6.288v-.192c0-3.672 2.568-6.288 6.168-6.288h.096c3.624 0 6.168 2.616 6.168 6.288v.192c0 3.672-2.544 6.288-6.168 6.288h-.096Zm.024-1.32h.048c2.808 0 4.8-2.064 4.8-4.992v-.144c0-2.928-1.992-4.992-4.8-4.992h-.048c-2.808 0-4.776 2.064-4.776 4.992v.144c0 2.928 1.968 4.992 4.776 4.992Zm9.858 1.176v-12.48h1.032c.144.528.264 1.344.288 2.136.912-1.32 2.472-2.136 4.32-2.136h.264v1.392a3.58 3.58 0 0 0-.504-.048c-2.424 0-4.056 1.584-4.056 4.152V298h-1.344Zm12.409.168c-2.616 0-4.416-1.536-4.416-3.768v-.048c0-2.616 2.544-3.984 7.488-3.984h1.56v-1.056c0-1.632-1.272-2.616-3.312-2.616h-.024c-1.416 0-3.048.48-4.368 1.368l-.672-1.104c1.632-1.032 3.312-1.632 5.088-1.632h.048c2.808 0 4.584 1.512 4.584 3.912v6.576c0 .672.192 1.584.432 2.184h-1.368c-.168-.408-.312-1.08-.384-1.656-1.344 1.2-2.976 1.824-4.656 1.824Zm.024-1.344c1.8 0 3.432-.768 4.608-2.016v-3.192h-1.248c-4.392 0-6.432.888-6.432 2.76v.048c0 1.416 1.272 2.4 3.072 2.4Zm13.927 1.248c-2.112 0-3.432-.96-3.432-3.264v-8.016h-1.752v-.936c.456-.144 1.176-.264 1.752-.312v-2.904l1.344-.192v3.072h4.392v1.272h-4.392v7.8c0 1.56.816 2.184 2.256 2.184.672 0 1.848-.12 2.4-.312v1.224c-.576.24-1.728.384-2.568.384Zm6.281-14.808c-.576 0-.984-.408-.984-.96s.408-.984.984-.984c.528 0 .96.432.96.984s-.432.96-.96.96ZM177.716 298v-12.48h1.344V298h-1.344Zm5.742 0v-12.48h1.032c.144.504.264 1.32.288 2.16.984-1.44 2.688-2.328 4.728-2.328h.072c3.024 0 4.584 1.656 4.584 4.656V298h-1.344v-7.776c0-2.256-1.104-3.528-3.432-3.528h-.096c-2.664 0-4.488 1.632-4.488 4.152V298h-1.344Zm14.019-8.088v-.192c0-2.52 2.184-4.344 5.184-4.344h.096c1.296 0 2.424.336 3.288.912.288-.696.6-1.32 1.08-1.968h1.344l-1.488 2.76c.624.72.984 1.632.984 2.64v.192c0 2.52-2.208 4.32-5.208 4.32h-.096a5.786 5.786 0 0 1-1.608-.216v1.92a10.236 10.236 0 0 1 1.776-.144h.144c3.216 0 5.544 1.344 5.544 3.48v.144c0 2.112-2.328 3.456-5.544 3.456h-.144c-3.24 0-5.544-1.32-5.544-3.432v-.168c0-1.392 1.008-2.448 2.472-3v-2.736c-1.416-.744-2.28-2.04-2.28-3.624Zm1.392-.168v.144c0 1.8 1.608 3.072 3.792 3.072h.12c2.184 0 3.792-1.296 3.792-3.072v-.144c0-1.776-1.608-3.096-3.84-3.096h-.048c-2.208 0-3.816 1.296-3.816 3.096Zm-.192 9.552v.096c0 1.392 1.656 2.232 4.176 2.232h.096c2.496 0 4.176-.864 4.176-2.232v-.096c0-1.392-1.68-2.256-4.176-2.256h-.096c-2.496 0-4.176.864-4.176 2.256Zm23.089-1.128c-2.616 0-4.416-1.536-4.416-3.768v-.048c0-2.616 2.544-3.984 7.488-3.984h1.56v-1.056c0-1.632-1.272-2.616-3.312-2.616h-.024c-1.416 0-3.048.48-4.368 1.368l-.672-1.104c1.632-1.032 3.312-1.632 5.088-1.632h.048c2.808 0 4.584 1.512 4.584 3.912v6.576c0 .672.192 1.584.432 2.184h-1.368c-.168-.408-.312-1.08-.384-1.656-1.344 1.2-2.976 1.824-4.656 1.824Zm.024-1.344c1.8 0 3.432-.768 4.608-2.016v-3.192h-1.248c-4.392 0-6.432.888-6.432 2.76v.048c0 1.416 1.272 2.4 3.072 2.4Zm15.652 1.32c-3.552 0-6.12-2.592-6.12-6.264v-.24c0-3.672 2.568-6.264 6.072-6.264h.096c2.376 0 4.224 1.248 5.208 3.096l-1.128.624c-.816-1.512-2.256-2.424-4.128-2.424h-.048c-2.784 0-4.656 1.992-4.656 4.968v.24c0 2.904 2.04 4.968 4.824 4.968h.048c1.896 0 3.264-.984 4.056-2.352l1.104.672c-1.032 1.8-2.856 2.976-5.208 2.976h-.12Zm13.805 0c-3.552 0-6.12-2.592-6.12-6.264v-.24c0-3.672 2.568-6.264 6.072-6.264h.096c2.376 0 4.224 1.248 5.208 3.096l-1.128.624c-.816-1.512-2.256-2.424-4.128-2.424h-.048c-2.784 0-4.656 1.992-4.656 4.968v.24c0 2.904 2.04 4.968 4.824 4.968h.048c1.896 0 3.264-.984 4.056-2.352l1.104.672c-1.032 1.8-2.856 2.976-5.208 2.976h-.12Zm13.853 0c-3.6 0-6.168-2.616-6.168-6.288v-.192c0-3.672 2.568-6.288 6.168-6.288h.096c3.624 0 6.168 2.616 6.168 6.288v.192c0 3.672-2.544 6.288-6.168 6.288h-.096Zm.024-1.32h.048c2.808 0 4.8-2.064 4.8-4.992v-.144c0-2.928-1.992-4.992-4.8-4.992h-.048c-2.808 0-4.776 2.064-4.776 4.992v.144c0 2.928 1.968 4.992 4.776 4.992Zm9.857 1.176v-12.48h1.032c.144.528.264 1.344.288 2.136.912-1.32 2.472-2.136 4.32-2.136h.264v1.392a3.58 3.58 0 0 0-.504-.048c-2.424 0-4.056 1.584-4.056 4.152V298h-1.344Zm14.21.144c-3.504 0-6.048-2.592-6.048-6.288v-.192c0-3.696 2.544-6.288 6.048-6.288h.072c2.112 0 3.888.984 4.896 2.592v-7.248h1.344V298h-1.056a14.685 14.685 0 0 1-.288-2.304v-.144c-1.008 1.608-2.784 2.592-4.896 2.592h-.072Zm.096-1.344h.12c2.832 0 4.752-1.992 4.752-4.968v-.144c0-2.976-1.92-4.968-4.752-4.968h-.12c-2.808 0-4.728 1.992-4.728 4.968v.144c0 2.976 1.92 4.968 4.728 4.968Zm11.304-13.536c-.576 0-.984-.408-.984-.96s.408-.984.984-.984c.528 0 .96.432.96.984s-.432.96-.96.96ZM299.919 298v-12.48h1.344V298h-1.344Zm5.742 0v-12.48h1.032c.144.504.264 1.32.288 2.16.984-1.44 2.688-2.328 4.728-2.328h.072c3.024 0 4.584 1.656 4.584 4.656V298h-1.344v-7.776c0-2.256-1.104-3.528-3.432-3.528h-.096c-2.664 0-4.488 1.632-4.488 4.152V298h-1.344Zm14.019-8.088v-.192c0-2.52 2.184-4.344 5.184-4.344h.096c1.296 0 2.424.336 3.288.912.288-.696.6-1.32 1.08-1.968h1.344l-1.488 2.76c.624.72.984 1.632.984 2.64v.192c0 2.52-2.208 4.32-5.208 4.32h-.096a5.786 5.786 0 0 1-1.608-.216v1.92a10.236 10.236 0 0 1 1.776-.144h.144c3.216 0 5.544 1.344 5.544 3.48v.144c0 2.112-2.328 3.456-5.544 3.456h-.144c-3.24 0-5.544-1.32-5.544-3.432v-.168c0-1.392 1.008-2.448 2.472-3v-2.736c-1.416-.744-2.28-2.04-2.28-3.624Zm1.392-.168v.144c0 1.8 1.608 3.072 3.792 3.072h.12c2.184 0 3.792-1.296 3.792-3.072v-.144c0-1.776-1.608-3.096-3.84-3.096h-.048c-2.208 0-3.816 1.296-3.816 3.096Zm-.192 9.552v.096c0 1.392 1.656 2.232 4.176 2.232h.096c2.496 0 4.176-.864 4.176-2.232v-.096c0-1.392-1.68-2.256-4.176-2.256h-.096c-2.496 0-4.176.864-4.176 2.256Zm23.305-1.224c-2.112 0-3.432-.96-3.432-3.264v-8.016h-1.752v-.936c.456-.144 1.176-.264 1.752-.312v-2.904l1.344-.192v3.072h4.392v1.272h-4.392v7.8c0 1.56.816 2.184 2.256 2.184.672 0 1.848-.12 2.4-.312v1.224c-.576.24-1.728.384-2.568.384Zm10.68.072c-3.6 0-6.168-2.616-6.168-6.288v-.192c0-3.672 2.568-6.288 6.168-6.288h.096c3.624 0 6.168 2.616 6.168 6.288v.192c0 3.672-2.544 6.288-6.168 6.288h-.096Zm.024-1.32h.048c2.808 0 4.8-2.064 4.8-4.992v-.144c0-2.928-1.992-4.992-4.8-4.992h-.048c-2.808 0-4.776 2.064-4.776 4.992v.144c0 2.928 1.968 4.992 4.776 4.992Zm17.642 5.88c-.552 0-1.296-.12-1.848-.432V301c.576.264 1.104.408 1.632.408 1.32 0 2.232-1.008 3-2.832l-5.688-13.056h1.536l4.752 11.064h.168l4.176-11.064h1.464l-4.968 13.152c-.936 2.52-2.112 4.032-4.224 4.032Zm16.623-4.56c-3.6 0-6.168-2.616-6.168-6.288v-.192c0-3.672 2.568-6.288 6.168-6.288h.096c3.624 0 6.168 2.616 6.168 6.288v.192c0 3.672-2.544 6.288-6.168 6.288h-.096Zm.024-1.32h.048c2.808 0 4.8-2.064 4.8-4.992v-.144c0-2.928-1.992-4.992-4.8-4.992h-.048c-2.808 0-4.776 2.064-4.776 4.992v.144c0 2.928 1.968 4.992 4.776 4.992Zm14.106 1.344c-2.976 0-4.488-1.656-4.488-4.656v-7.992h1.344v7.776c0 2.256 1.056 3.528 3.336 3.528h.072c2.592 0 4.44-1.632 4.44-4.152v-7.152h1.344V298h-1.056c-.144-.504-.24-1.296-.288-2.136-.96 1.416-2.64 2.304-4.656 2.304h-.048Zm10.447-.168v-12.48h1.032c.144.528.264 1.344.288 2.136.912-1.32 2.472-2.136 4.32-2.136h.264v1.392a3.58 3.58 0 0 0-.504-.048c-2.424 0-4.056 1.584-4.056 4.152V298h-1.344Zm19.282.072c-2.112 0-3.432-.96-3.432-3.264v-8.016h-1.752v-.936c.456-.144 1.176-.264 1.752-.312v-2.904l1.344-.192v3.072h4.392v1.272h-4.392v7.8c0 1.56.816 2.184 2.256 2.184.672 0 1.848-.12 2.4-.312v1.224c-.576.24-1.728.384-2.568.384Zm9.065.096c-2.616 0-4.416-1.536-4.416-3.768v-.048c0-2.616 2.544-3.984 7.488-3.984h1.56v-1.056c0-1.632-1.272-2.616-3.312-2.616h-.024c-1.416 0-3.048.48-4.368 1.368l-.672-1.104c1.632-1.032 3.312-1.632 5.088-1.632h.048c2.808 0 4.584 1.512 4.584 3.912v6.576c0 .672.192 1.584.432 2.184h-1.368c-.168-.408-.312-1.08-.384-1.656-1.344 1.2-2.976 1.824-4.656 1.824Zm.024-1.344c1.8 0 3.432-.768 4.608-2.016v-3.192h-1.248c-4.392 0-6.432.888-6.432 2.76v.048c0 1.416 1.272 2.4 3.072 2.4Zm14.405 1.344c-1.968 0-4.032-.696-5.328-1.872l.792-1.008c1.344 1.032 2.904 1.584 4.584 1.584 2.064 0 3.36-.888 3.36-2.208 0-1.656-1.968-2.064-4.008-2.544-2.328-.528-4.248-1.2-4.248-3.336 0-2.064 1.8-3.432 4.416-3.432 1.656 0 3.456.552 4.704 1.488l-.672 1.104c-1.2-.816-2.736-1.272-4.104-1.272-1.824 0-2.952.816-2.952 1.992 0 1.056.888 1.632 3.552 2.256 2.616.6 4.728 1.296 4.728 3.6 0 2.208-1.968 3.648-4.824 3.648Zm11.686-.096c-2.112 0-3.432-.96-3.432-3.264v-8.016h-1.752v-.936c.456-.144 1.176-.264 1.752-.312v-2.904l1.344-.192v3.072h4.392v1.272h-4.392v7.8c0 1.56.816 2.184 2.256 2.184.672 0 1.848-.12 2.4-.312v1.224c-.576.24-1.728.384-2.568.384Zm10.608.072c-3.576 0-6.096-2.568-6.096-6.072v-.336c0-3.696 2.544-6.36 6.096-6.36h.024c3.36 0 5.688 2.376 5.688 5.832v1.128h-10.392v.048c.168 2.592 2.088 4.416 4.776 4.416 1.8 0 3.384-.816 4.224-2.016l1.08.72c-1.248 1.704-3.24 2.64-5.4 2.64Zm-4.632-7.08h9v-.072c-.096-2.544-1.896-4.272-4.44-4.272-2.52 0-4.32 1.752-4.56 4.344ZM140.739 493.868c7.606 3.39 17.055 5.746 25.221 6.283 22.211 1.468 41.082-8.903 54.334-29.913 1.635-2.512 3.77-6.333 4.87-8.513 1.032-2.179 1.999-4.023 2.066-4.09.067-.067.076 2.285-.046 5.241-.673 25.357 9.839 50.519 33.811 61.782 7.506 3.557 18.099 6.322 25.995 6.79l3.495.216 1.233-2.447c3.367-6.47 6.31-18.048 6.812-26.646 1.289-21.864-8.73-40.247-29.277-53.902-3.402-2.265-10.204-6.055-13.401-7.513-.37-.169 2.787-.291 7.054-.24 29.933.223 50.844-12.324 60.723-36.572 2.628-6.406 4.772-16.105 5.212-23.561l.158-2.519-2.39-1.186c-8.584-4.234-20.05-6.867-30.162-6.942-16.394-.134-28.467 4.924-40.345 16.801-6.591 6.591-11.434 13.526-15.831 22.645l-1.799 3.755.144-5.945c.348-13.369-2.189-26.011-7.235-36.143-5.521-11.142-14.998-20.284-26.543-25.74-7.506-3.557-17.965-6.254-25.996-6.79l-3.494-.216-1.233 2.447c-4.634 8.951-7.53 23.653-6.781 34.373 1.499 21.64 15.28 40.038 38.877 51.791 2.187 1.05 4.005 1.998 4.107 2.1.067.067-2.419.057-5.51-.09-16.43-.503-31.464 3.332-42.687 10.98-1.742 1.202-5.023 4.011-7.331 6.319-6.759 6.759-11.296 14.4-14.414 24.331-2.588 7.985-4.285 20.139-3.037 21.319.337.271 1.852 1.117 3.4 1.795Z"/></svg>