<svg width="1920" height="742" viewBox="0 0 1920 742" fill="none" xmlns="http://www.w3.org/2000/svg">
<g clip-path="url(#clip0_1147_1935)">
<rect width="1920" height="742" fill="#1344F0"/>
<path d="M-238 721.411C90.5139 679.607 703.936 982.471 595.241 661.771C565.697 697.652 544.572 479.569 475.637 563.291C566.376 633.345 30.3971 702.298 242.124 865.758C208.813 968.831 -23.7317 514.219 -101.455 754.724" stroke="#4DDEC4" stroke-width="5"/>
<path d="M-238 -28.2692C-140.977 -350.994 530.592 577.906 620.658 17.7419C620.011 230.088 -85.6512 -479.892 -87.1627 15.5828C-96.0466 24.7825 -97.0993 -35.4965 -117.828 -14.0304C-80.9633 -176.41 337.418 487.739 423.436 108.853" stroke="#4DDEC4" stroke-width="5"/>
<path d="M1016 667.586C1469.26 803.992 1495.57 388.158 1340.82 524.492C1329.87 460.044 1581.19 638.378 1555.65 488C1598.56 504.173 1401.61 593.299 1501.74 631.035C1504.49 489.477 1967.18 970.512 1973.6 640.209" stroke="#4DDEC4" stroke-width="4"/>
<path d="M929 -78C1143.77 -66.9269 835.61 41.2942 981.343 111.272C952.744 -164.902 1968.65 660.349 1901.92 15.9426C1906.96 10.5445 1908.17 45.3151 1919.92 32.7194C1916.82 40.9915 1899.57 3.09966 1892.34 22.4012" stroke="#4DDEC4" stroke-width="5"/>
</g>
<defs>
<clipPath id="clip0_1147_1935">
<rect width="1920" height="742" fill="white"/>
</clipPath>
</defs>
</svg>
