<svg width="31" height="30" viewBox="0 0 31 30" fill="none" xmlns="http://www.w3.org/2000/svg">
<path d="M20.6522 14.9988L21.8996 15.0248C21.8999 15.0075 21.8999 14.9902 21.8996 14.9728L20.6522 14.9988ZM10.6707 14.9988L9.42327 14.9728C9.42291 14.9902 9.42291 15.0075 9.42327 15.0248L10.6707 14.9988ZM26.8906 14.9988C26.8906 21.2005 21.8631 26.228 15.6614 26.228V28.7234C23.2413 28.7234 29.386 22.5787 29.386 14.9988H26.8906ZM15.6614 26.228C9.45972 26.228 4.43226 21.2005 4.43226 14.9988H1.93689C1.93689 22.5787 8.08157 28.7234 15.6614 28.7234V26.228ZM4.43226 14.9988C4.43226 8.79713 9.45972 3.76966 15.6614 3.76966V1.27429C8.08157 1.27429 1.93689 7.41897 1.93689 14.9988H4.43226ZM15.6614 3.76966C21.8631 3.76966 26.8906 8.79713 26.8906 14.9988H29.386C29.386 7.41897 23.2413 1.27429 15.6614 1.27429V3.76966ZM3.18457 16.2465H28.1383V13.7511H3.18457V16.2465ZM14.7402 3.36344C17.657 6.55674 19.3147 10.7008 19.4047 15.0248L21.8996 14.9728C21.7969 10.0441 19.9074 5.32041 16.5826 1.68051L14.7402 3.36344ZM19.4047 14.9728C19.3147 19.2968 17.657 23.4409 14.7402 26.6342L16.5826 28.3171C19.9074 24.6772 21.7969 19.9536 21.8996 15.0248L19.4047 14.9728ZM16.5826 26.6342C13.6658 23.4409 12.0082 19.2968 11.9181 14.9728L9.42327 15.0248C9.52595 19.9536 11.4154 24.6772 14.7402 28.3171L16.5826 26.6342ZM11.9181 15.0248C12.0082 10.7008 13.6658 6.55674 16.5826 3.36344L14.7402 1.68051C11.4154 5.32041 9.52595 10.0441 9.42327 14.9728L11.9181 15.0248Z" fill="#F2F6FF"/>
</svg>
