<svg width="50" height="50" viewBox="0 0 50 50" fill="none" xmlns="http://www.w3.org/2000/svg">
<rect width="50" height="50" rx="10.9375" fill="#F2F6FF"/>
<path d="M30.4342 17.4282C32.596 17.4282 34.6693 18.3443 36.198 19.9749C37.7267 21.6054 38.5855 23.817 38.5855 26.123V36.2668H33.1513V26.123C33.1513 25.3543 32.865 24.6171 32.3554 24.0736C31.8459 23.5301 31.1548 23.2247 30.4342 23.2247C29.7135 23.2247 29.0224 23.5301 28.5129 24.0736C28.0033 24.6171 27.717 25.3543 27.717 26.123V36.2668H22.2828V26.123C22.2828 23.817 23.1416 21.6054 24.6703 19.9749C26.199 18.3443 28.2723 17.4282 30.4342 17.4282Z" stroke="#1344F0" stroke-width="2.71711" stroke-linecap="round" stroke-linejoin="round"/>
<path d="M16.8486 18.877H11.4144V36.2664H16.8486V18.877Z" stroke="#1344F0" stroke-width="2.71711" stroke-linecap="round" stroke-linejoin="round"/>
<path d="M14.1315 14.5299C15.6321 14.5299 16.8486 13.2323 16.8486 11.6316C16.8486 10.031 15.6321 8.7334 14.1315 8.7334C12.6309 8.7334 11.4144 10.031 11.4144 11.6316C11.4144 13.2323 12.6309 14.5299 14.1315 14.5299Z" stroke="#1344F0" stroke-width="2.71711" stroke-linecap="round" stroke-linejoin="round"/>
</svg>
